<svg width="150" height="169" viewBox="0 0 150 169" fill="none" xmlns="http://www.w3.org/2000/svg">
<g filter="url(#filter0_d)">
<path d="M50.5301 40.3309C25.5302 37.5525 31.0856 12.5525 31.0856 12.5525C54.4751 6.16435 64.8644 22.608 68.4193 30.6367H81.5857C85.1418 22.608 95.5311 6.16435 118.919 12.5525C118.919 12.5525 124.475 37.5525 99.4748 40.3309L75.0025 62.5525L50.5301 40.3309Z" fill="#24AE5F"/>
<path d="M99.4749 40.3308L75.0025 62.5525L50.5302 40.3308C30.1416 38.0527 30.0865 21.0251 30.753 14.8032C31.5857 22.2467 35.642 31.8033 50.5302 33.4413L75.0025 55.6642L99.4749 33.4413C114.364 31.8033 118.419 22.2467 119.253 14.8032C119.92 21.0251 119.865 38.0552 99.4749 40.3308Z" fill="#4C8056"/>
<path d="M147.223 77.7783V98.6108C147.212 115.198 140.612 131.102 128.875 142.823C117.139 154.544 101.227 161.122 84.6392 161.111H83.3338C78.7311 161.111 75 157.381 75 152.778C75 157.381 71.2689 161.111 66.6663 161.111H65.3609C48.7747 161.122 32.8624 154.544 21.1251 142.823C9.38908 131.102 2.78835 115.198 2.77835 98.6108V77.7783C2.78585 54.7689 21.4352 36.1183 44.4446 36.1108H55.7505C60.852 36.1071 65.7472 38.1302 69.3571 41.735C72.9669 45.3399 74.9975 50.2313 75 55.3329C75.0025 50.2313 77.0331 45.3399 80.643 41.735C84.2541 38.1302 89.148 36.1071 94.2508 36.1108H105.555C128.565 36.1183 147.215 54.7689 147.223 77.7783Z" fill="#F5EFCA"/>
<path d="M138.889 77.7783V98.6108C138.889 133.139 114.094 161.111 83.5275 161.111H82.3722C78.0396 160.836 74.7449 157.111 75 152.778C75.2551 157.111 71.9603 160.836 67.6278 161.111H66.4724C35.9057 161.111 11.1108 133.139 11.1108 98.6108V77.7783C11.1108 54.7777 27.6245 36.1108 47.9694 36.1108H57.9699C67.3839 36.1108 75 44.7222 75 55.3329C75 44.7222 82.6173 36.1108 92.0276 36.1108H102.028C122.375 36.1108 138.889 54.7777 138.889 77.7783Z" fill="#F5EFCA"/>
<path d="M66.6662 163.889H65.3609C29.3038 163.87 0.0637692 134.669 0 98.6108V77.7783C0.0287586 53.2435 19.911 33.3625 44.4446 33.3337H55.7505C57.2847 33.3337 58.5276 34.5766 58.5276 36.1108C58.5276 37.645 57.2847 38.8892 55.7505 38.8892H44.4446C22.9756 38.9117 5.57792 56.3094 5.55542 77.7783V98.6108C5.61543 131.603 32.3697 158.32 65.3609 158.334H66.6662C68.2005 158.334 69.4446 159.578 69.4446 161.111C69.4446 162.645 68.2005 163.889 66.6662 163.889Z" fill="#C03A2B"/>
<path d="M84.6391 163.889H83.3338C81.7995 163.889 80.5554 162.645 80.5554 161.111C80.5554 159.578 81.7995 158.334 83.3338 158.334H84.6391C117.63 158.32 144.385 131.603 144.445 98.6108V77.7783C144.422 56.3094 127.024 38.9117 105.555 38.8892H94.2508C92.7166 38.8892 91.4724 37.645 91.4724 36.1108C91.4724 34.5766 92.7166 33.3337 94.2508 33.3337H105.555C130.09 33.3625 149.971 53.2435 150 77.7783V98.6108C149.936 134.669 120.697 163.87 84.6391 163.889Z" fill="#C03A2B"/>
<path d="M82.9449 6.25563L80.8055 40.0858C78.4072 42.0464 76.4317 44.4746 75 47.2229C73.5683 44.4746 71.5939 42.0464 69.1945 40.0858L67.0551 6.25563C66.9138 4.67765 67.4302 3.11218 68.4818 1.92808C69.5333 0.742723 71.0275 0.0462638 72.6118 0H77.3894C78.9724 0.0462638 80.4666 0.742723 81.5182 1.92808C82.5697 3.11218 83.0862 4.67765 82.9449 6.25563Z" fill="#804537"/>
<path d="M75 62.9276C73.4658 62.9276 72.2229 61.6847 72.2229 60.1505V55.3416C72.2042 46.2514 64.8294 38.8904 55.7392 38.8892C54.205 38.8892 52.9609 37.645 52.9609 36.1108C52.9609 34.5766 54.205 33.3337 55.7392 33.3337C67.8966 33.3375 77.7571 43.1842 77.7783 55.3416V60.1505C77.7783 61.6847 76.5342 62.9276 75 62.9276Z" fill="#C03A2B"/>
<path d="M75 62.9276C73.4658 62.9276 72.223 61.6847 72.223 60.1505V55.3416C72.2442 43.1842 82.1034 33.3375 94.2608 33.3337C95.795 33.3337 97.0392 34.5766 97.0392 36.1108C97.0392 37.645 95.795 38.8892 94.2608 38.8892C85.1706 38.8904 77.7959 46.2514 77.7784 55.3416V60.1505C77.7784 61.6847 76.5343 62.9276 75 62.9276Z" fill="#C03A2B"/>
<path d="M75 52.7783C75 52.7783 50.3889 52.7783 33.6113 66.6662C31.677 68.2617 30.5567 70.6374 30.5554 73.1444V100C30.5554 104.603 34.2865 108.334 38.8892 108.334H111.111C115.713 108.334 119.445 104.603 119.445 100V73.1444C119.443 70.6374 118.323 68.2617 116.389 66.6662C99.6111 52.7783 75 52.7783 75 52.7783Z" fill="#67B9CC"/>
<path d="M111.111 111.111H38.8891C32.7523 111.111 27.7783 106.137 27.7783 100V73.1444C27.7721 69.8134 29.2575 66.6537 31.8283 64.5331C49.1885 50.1663 73.9559 50 75 50C76.044 50 100.811 50.1663 118.173 64.5356C120.741 66.6562 122.228 69.8134 122.223 73.1444V100C122.223 106.137 117.248 111.111 111.111 111.111ZM75 55.5554C74.6524 55.5554 51.1253 55.7755 35.3693 68.8169C34.0789 69.8835 33.3325 71.4702 33.3337 73.1444V100C33.3337 103.068 35.8207 105.555 38.8891 105.555H111.111C114.179 105.555 116.666 103.068 116.666 100V73.1444C116.667 71.4702 115.921 69.8822 114.631 68.8144C98.8896 55.7755 75.3476 55.5554 75 55.5554Z" fill="#41767F"/>
<path d="M75.0001 69.4446C73.4659 69.4446 72.223 68.2004 72.223 66.6662V61.1108C72.223 59.5766 73.4659 58.3337 75.0001 58.3337C76.5343 58.3337 77.7784 59.5766 77.7784 61.1108V66.6662C77.7784 68.2004 76.5343 69.4446 75.0001 69.4446Z" fill="#2C3E50"/>
<path d="M63.8892 72.2229C62.8314 72.2279 61.8624 71.6327 61.3885 70.6862L58.6114 65.1308C57.925 63.7579 58.4826 62.0886 59.8555 61.4034C61.2284 60.7169 62.8977 61.2746 63.5829 62.6475L66.3612 68.2029C66.7901 69.0619 66.7451 70.0823 66.2425 70.9C65.7398 71.7177 64.8495 72.2179 63.8892 72.2229Z" fill="#2C3E50"/>
<path d="M54.5114 77.1356C53.7999 77.1369 53.1159 76.8643 52.5995 76.3754L48.0894 72.1054C46.9741 71.0513 46.9253 69.292 47.9806 68.1779C49.036 67.0639 50.794 67.0151 51.9081 68.0692L56.4194 72.3392C57.2472 73.1207 57.5135 74.3273 57.0934 75.3851C56.672 76.4429 55.6492 77.1369 54.5114 77.1356Z" fill="#2C3E50"/>
<path d="M47.223 83.3337H41.6663C40.1321 83.3337 38.8892 82.0896 38.8892 80.5554C38.8892 79.0212 40.1321 77.7783 41.6663 77.7783H47.223C48.7559 77.7783 50.0001 79.0212 50.0001 80.5554C50.0001 82.0896 48.7559 83.3337 47.223 83.3337Z" fill="#2C3E50"/>
<path d="M86.1109 72.2229C85.1494 72.2217 84.2553 71.7228 83.7502 70.905C83.2438 70.086 83.1975 69.0632 83.6277 68.2029L86.406 62.6475C87.0912 61.2746 88.7604 60.7169 90.1334 61.4034C91.5063 62.0886 92.0639 63.7579 91.3775 65.1308L88.6004 70.6862C88.129 71.629 87.165 72.2242 86.1109 72.2229Z" fill="#2C3E50"/>
<path d="M95.4886 77.1356C94.3508 77.1369 93.328 76.4429 92.9066 75.3851C92.4865 74.3273 92.7528 73.1207 93.5806 72.3392L98.0894 68.0692C99.2035 67.0151 100.962 67.0639 102.017 68.1779C103.072 69.292 103.023 71.0513 101.908 72.1054L97.4005 76.3891C96.8816 76.873 96.1976 77.1406 95.4886 77.1356Z" fill="#2C3E50"/>
<path d="M108.334 83.3337H102.778C101.244 83.3337 100 82.0896 100 80.5554C100 79.0212 101.244 77.7783 102.778 77.7783H108.334C109.868 77.7783 111.111 79.0212 111.111 80.5554C111.111 82.0896 109.868 83.3337 108.334 83.3337Z" fill="#2C3E50"/>
<path d="M75.0001 100C73.9222 100 72.9432 99.3761 72.4856 98.4008C72.0292 97.4242 72.1767 96.2726 72.8669 95.4449L86.7561 78.7774C87.3825 77.9884 88.3878 77.5995 89.3831 77.7633C90.3784 77.9271 91.2062 78.6173 91.5463 79.5664C91.8864 80.5154 91.6863 81.5745 91.0224 82.3335L77.1332 98.9997C76.6055 99.6336 75.8241 100 75.0001 100Z" fill="#2C3E50"/>
<path d="M38.8892 122.223H33.3338C31.7995 122.223 30.5554 120.979 30.5554 119.445C30.5554 117.91 31.7995 116.666 33.3338 116.666H38.8892C40.4234 116.666 41.6663 117.91 41.6663 119.445C41.6663 120.979 40.4234 122.223 38.8892 122.223Z" fill="#7F6E5D"/>
<path d="M116.666 122.223H111.111C109.577 122.223 108.334 120.979 108.334 119.445C108.334 117.91 109.577 116.666 111.111 116.666H116.666C118.201 116.666 119.445 117.91 119.445 119.445C119.445 120.979 118.201 122.223 116.666 122.223Z" fill="#7F6E5D"/>
<path d="M100 122.223H50C48.4658 122.223 47.2229 120.979 47.2229 119.445C47.2229 117.91 48.4658 116.666 50 116.666H100C101.534 116.666 102.778 117.91 102.778 119.445C102.778 120.979 101.534 122.223 100 122.223Z" fill="#7F6E5D"/>
<path d="M66.6663 163.889C65.1321 163.889 63.8892 162.645 63.8892 161.111C63.8892 159.578 65.1321 158.334 66.6663 158.334C69.7347 158.334 72.223 155.847 72.223 152.778C72.223 151.244 73.4658 150 75.0001 150C76.5343 150 77.7784 151.244 77.7784 152.778C77.7784 158.914 72.8031 163.889 66.6663 163.889Z" fill="#C03A2B"/>
<path d="M83.3338 163.889C77.197 163.889 72.223 158.914 72.223 152.778C72.223 151.244 73.4658 150 75 150C76.5343 150 77.7784 151.244 77.7784 152.778C77.7784 155.847 80.2654 158.334 83.3338 158.334C84.868 158.334 86.1109 159.578 86.1109 161.111C86.1109 162.645 84.868 163.889 83.3338 163.889Z" fill="#C03A2B"/>
</g>
<defs>
<filter id="filter0_d" x="0" y="0" width="150" height="168.889" filterUnits="userSpaceOnUse" color-interpolation-filters="sRGB">
<feFlood flood-opacity="0" result="BackgroundImageFix"/>
<feColorMatrix in="SourceAlpha" type="matrix" values="0 0 0 0 0 0 0 0 0 0 0 0 0 0 0 0 0 0 127 0"/>
<feOffset dy="5"/>
<feColorMatrix type="matrix" values="0 0 0 0 0.268681 0 0 0 0 0.355174 0 0 0 0 0.441667 0 0 0 1 0"/>
<feBlend mode="normal" in2="BackgroundImageFix" result="effect1_dropShadow"/>
<feBlend mode="normal" in="SourceGraphic" in2="effect1_dropShadow" result="shape"/>
</filter>
</defs>
</svg>
