<svg width="32" height="28" viewBox="0 0 32 28" fill="none" xmlns="http://www.w3.org/2000/svg">
<path fill-rule="evenodd" clip-rule="evenodd" d="M15.4195 0.587449C15.6057 0.773191 15.7535 0.993845 15.8543 1.23677C15.9551 1.4797 16.007 1.74013 16.007 2.00314C16.007 2.26615 15.9551 2.52658 15.8543 2.76951C15.7535 3.01244 15.6057 3.23309 15.4195 3.41883L4.83382 14.0005L15.4195 24.5822C15.6054 24.7681 15.7529 24.9888 15.8535 25.2317C15.9541 25.4747 16.0059 25.735 16.0059 25.9979C16.0059 26.2608 15.9541 26.5212 15.8535 26.7641C15.7529 27.007 15.6054 27.2277 15.4195 27.4136C15.2336 27.5995 15.0129 27.747 14.77 27.8476C14.5271 27.9482 14.2667 28 14.0038 28C13.7409 28 13.4806 27.9482 13.2376 27.8476C12.9947 27.747 12.774 27.5995 12.5881 27.4136L0.59074 15.4162C0.404528 15.2305 0.256788 15.0098 0.155984 14.7669C0.0551805 14.524 0.0032934 14.2635 0.00329345 14.0005C0.0032935 13.7375 0.0551807 13.4771 0.155985 13.2342C0.256788 12.9912 0.404528 12.7706 0.590741 12.5848L12.5881 0.587448C12.7739 0.401236 12.9945 0.253496 13.2375 0.152692C13.4804 0.0518886 13.7408 2.40194e-06 14.0038 2.44793e-06C14.2668 2.49392e-06 14.5273 0.0518888 14.7702 0.152693C15.0131 0.253496 15.2338 0.401236 15.4195 0.587449Z" fill="white"/>
<path fill-rule="evenodd" clip-rule="evenodd" d="M2.00647 14.0005C2.00647 13.4702 2.21714 12.9616 2.59213 12.5866C2.96712 12.2116 3.47572 12.0009 4.00603 12.0009L30.0004 12.001C30.5307 12.001 31.0393 12.2116 31.4143 12.5866C31.7893 12.9616 31.9999 13.4702 31.9999 14.0005C31.9999 14.5308 31.7893 15.0394 31.4143 15.4144C31.0393 15.7894 30.5307 16.0001 30.0004 16.0001L4.00603 16.0001C3.47572 16.0001 2.96712 15.7894 2.59213 15.4144C2.21714 15.0394 2.00647 14.5308 2.00647 14.0005Z" fill="white"/>
</svg>
