<svg width="32" height="28" viewBox="0 0 32 28" fill="none" xmlns="http://www.w3.org/2000/svg">
<path fill-rule="evenodd" clip-rule="evenodd" d="M16.5805 27.4126C16.3943 27.2268 16.2465 27.0062 16.1457 26.7632C16.0449 26.5203 15.993 26.2599 15.993 25.9969C15.993 25.7338 16.0449 25.4734 16.1457 25.2305C16.2465 24.9876 16.3943 24.7669 16.5805 24.5812L27.1662 13.9995L16.5805 3.41778C16.3946 3.23187 16.2471 3.01116 16.1465 2.76826C16.0459 2.52535 15.9941 2.26501 15.9941 2.00209C15.9941 1.73917 16.0459 1.47883 16.1465 1.23592C16.2471 0.993016 16.3946 0.772307 16.5805 0.586396C16.7664 0.400485 16.9871 0.25301 17.23 0.152398C17.4729 0.0517832 17.7333 -1.24695e-06 17.9962 -1.22396e-06C18.2591 -1.20098e-06 18.5194 0.0517833 18.7624 0.152398C19.0053 0.253011 19.226 0.400485 19.4119 0.586396L31.4093 12.5838C31.5955 12.7695 31.7432 12.9902 31.844 13.2331C31.9448 13.476 31.9967 13.7365 31.9967 13.9995C31.9967 14.2625 31.9448 14.5229 31.844 14.7658C31.7432 15.0088 31.5955 15.2294 31.4093 15.4152L19.4119 27.4126C19.2261 27.5988 19.0055 27.7465 18.7625 27.8473C18.5196 27.9481 18.2592 28 17.9962 28C17.7332 28 17.4727 27.9481 17.2298 27.8473C16.9869 27.7465 16.7662 27.5988 16.5805 27.4126Z" fill="white"/>
<path fill-rule="evenodd" clip-rule="evenodd" d="M29.9935 13.9995C29.9935 14.5298 29.7828 15.0384 29.4078 15.4134C29.0328 15.7884 28.5242 15.9991 27.9939 15.9991L1.99957 15.9991C1.46926 15.9991 0.960657 15.7884 0.585665 15.4134C0.210674 15.0384 7.75784e-06 14.5298 7.8042e-06 13.9995C7.85056e-06 13.4692 0.210675 12.9606 0.585665 12.5856C0.960657 12.2106 1.46926 11.9999 1.99957 11.9999L27.9939 11.9999C28.5242 11.9999 29.0328 12.2106 29.4078 12.5856C29.7828 12.9606 29.9935 13.4692 29.9935 13.9995Z" fill="white"/>
</svg>
