<svg width="128" height="206" viewBox="0 0 128 206" fill="none" xmlns="http://www.w3.org/2000/svg">
<g filter="url(#filter0_d)">
<path d="M44.8272 37.9303V8.42743C44.4473 4.20837 47.5143 0.462341 51.7242 0H86.2075C90.4174 0.462341 93.4829 4.20837 93.103 8.42743V37.9303" fill="#2C3E50"/>
<path d="M93.103 165.517V192.339C93.3029 196.355 90.2222 199.777 86.2076 200H51.7242C47.7096 199.777 44.6274 196.355 44.8273 192.339V165.517" fill="#2C3E50"/>
<path d="M72.4136 20.6894H65.5167C63.6124 20.6894 62.0697 19.1452 62.0697 17.2409C62.0697 15.3366 63.6124 13.7924 65.5167 13.7924H72.4136C74.3179 13.7924 75.8621 15.3366 75.8621 17.2409C75.8621 19.1452 74.3179 20.6894 72.4136 20.6894Z" fill="#2C2F38"/>
<path d="M72.4136 186.208H65.5167C63.6124 186.208 62.0697 184.663 62.0697 182.759C62.0697 180.855 63.6124 179.311 65.5167 179.311H72.4136C74.3179 179.311 75.8621 180.855 75.8621 182.759C75.8621 184.663 74.3179 186.208 72.4136 186.208Z" fill="#2C2F38"/>
<path d="M109.276 62.3108L105.759 51.7242L101.848 37.6724C100.755 33.7463 97.1787 31.0303 93.1031 31.0349H44.8273C40.7548 31.0349 37.1812 33.7494 36.0901 37.6724L32.1732 51.7242L28.6545 62.3108" fill="#2C2F38"/>
<path d="M28.6545 137.689L32.1732 148.276L36.0825 162.328C37.175 166.254 40.7517 168.97 44.8273 168.965H93.1031C97.1757 168.965 100.749 166.251 101.842 162.328L105.759 148.276L109.276 137.689" fill="#2C2F38"/>
<path d="M68.9651 44.8273C42.4789 44.8212 19.725 63.6383 14.7583 89.6546C14.122 93.0664 13.7985 96.5302 13.7924 100C13.797 103.436 14.1205 106.865 14.7583 110.242V110.345C17.9489 127.106 28.7216 141.443 43.9316 149.173C43.0588 147.444 42.276 145.671 41.5863 143.861C41.2766 143.034 40.9653 142.172 40.6891 141.31C40.4358 140.61 40.2161 139.896 40.0345 139.172C39.5493 137.578 39.1693 135.954 38.8962 134.311C38.7711 133.788 38.6795 133.258 38.62 132.724C38.4827 131.931 38.3789 131.139 38.3102 130.345C38.2065 129.62 38.1378 128.897 38.1027 128.137C37.9761 126.808 37.9196 125.473 37.9303 124.138C37.9303 123.207 37.9654 122.276 38.0005 121.346C38.0341 120.758 38.0692 120.207 38.1027 119.655C38.1378 119.104 38.2065 118.483 38.2751 117.897C38.3453 117.413 38.3789 116.966 38.4476 116.483C38.4476 116.414 38.4827 116.345 38.4827 116.277C38.62 115.448 38.7238 114.621 38.8962 113.792C39.0686 112.828 39.2761 111.862 39.5172 110.896C39.5523 110.793 39.5523 110.724 39.5859 110.62C39.5859 110.587 39.621 110.518 39.621 110.483C39.6484 110.442 39.6606 110.393 39.6545 110.345C39.8972 109.38 40.2069 108.414 40.5167 107.448C40.6204 107.001 40.7928 106.552 40.9317 106.139C40.9653 106 41.0339 105.862 41.069 105.724C41.3254 104.95 41.626 104.19 41.9662 103.449C41.9998 103.31 42.0685 103.172 42.1036 103.069C42.2638 102.617 42.4591 102.179 42.6895 101.759C42.6895 101.724 42.7246 101.689 42.7246 101.656C42.7933 101.483 42.8619 101.344 42.9306 101.172C43.2755 100.449 43.6203 99.7238 43.9651 99.0341C44.0338 98.9304 44.0689 98.7931 44.1376 98.6893C44.2764 98.4482 44.3787 98.2407 44.5175 97.9996C44.7098 97.5952 44.928 97.2031 45.1721 96.8277V96.7591C45.3796 96.3791 45.6207 96.0007 45.8618 95.6208C45.9763 95.4056 46.1029 95.1996 46.2418 94.9997C46.4142 94.7235 46.6202 94.4489 46.7926 94.1376C47.1039 93.6554 47.4487 93.1717 47.7936 92.6544C48.2407 91.9998 48.7244 91.3452 49.2065 90.6891C49.6902 90.0345 50.2075 89.4135 50.7584 88.7924C50.9308 88.5514 51.1383 88.3454 51.3107 88.1027C51.387 88.031 51.4572 87.9502 51.5167 87.8617L51.6556 87.7243C52.3788 86.8622 53.1723 86.0352 53.9993 85.2066C54.5517 84.6558 55.1376 84.0683 55.7587 83.5175C56.9656 82.4143 58.2062 81.3797 59.4833 80.3787C60.0006 79.9652 60.5179 79.5868 61.0352 79.2069C61.1572 79.1382 61.2732 79.0573 61.38 78.9658C62.0697 78.5172 62.7579 78.035 63.4827 77.5864C64.2075 77.1378 64.8621 76.7243 65.5869 76.3108L66.5176 75.7935C66.5176 75.7584 66.5512 75.7935 66.5512 75.7935C66.7007 75.6806 66.8625 75.589 67.0349 75.5173C67.1768 75.4242 67.3264 75.3433 67.4835 75.2762C67.5552 75.2167 67.6361 75.1709 67.7246 75.1374C68.7668 74.5774 69.8364 74.0708 70.9305 73.6206C71.6049 73.2987 72.2961 73.0103 72.9996 72.7585H73.0347C73.0347 72.7402 73.0499 72.7234 73.0682 72.7234C73.1323 72.6853 73.2025 72.6624 73.2758 72.6547C73.8251 72.4121 74.3896 72.2046 74.9649 72.0352C75.5173 71.8277 76.0696 71.6553 76.6556 71.4829C76.915 71.3867 77.179 71.3059 77.449 71.2418C77.9999 71.0343 78.5858 70.8969 79.1382 70.7245C79.5517 70.6558 79.9316 70.5521 80.3452 70.4483L82.2418 70.0348C82.8613 69.9311 83.5175 69.7937 84.1385 69.69C84.552 69.6213 84.9655 69.5511 85.379 69.5175L86.0687 69.4138L87.9303 69.2063H88.0005C88.8275 69.1376 89.6896 69.0689 90.5518 69.0338C91.4139 69.0003 92.2409 68.9652 93.103 68.9652C94.4382 68.953 95.7733 69.011 97.1039 69.1376C97.8622 69.1727 98.5855 69.2414 99.3103 69.3451C100.104 69.4138 100.897 69.5175 101.689 69.6549C102.213 69.7144 102.731 69.8059 103.241 69.9311C103.241 69.9311 103.276 69.896 103.276 69.9311C104.919 70.2042 106.543 70.5841 108.138 71.0694C108.861 71.2509 109.575 71.4691 110.275 71.724C111.137 72.0001 112 72.3099 112.828 72.6212C114.636 73.3109 116.409 74.0937 118.138 74.9649C108.734 56.4575 89.7247 44.8075 68.9651 44.8273ZM37.4146 108.173L39.4821 110.345H24.1379C22.2336 110.345 20.6894 108.801 20.6894 106.897C20.6894 104.993 22.2336 103.449 24.1379 103.449H33.9661C34.906 105.165 36.0657 106.754 37.4146 108.173Z" fill="#41767F"/>
<path d="M124.138 100C124.141 119.194 114.166 137.01 97.8028 147.043C81.4377 157.076 61.0352 157.883 43.9316 149.173C43.0588 147.444 42.2761 145.671 41.5864 143.861C41.2766 143.034 40.9653 142.172 40.6891 141.31C40.4481 140.62 40.2421 139.897 40.0345 139.172C39.5661 137.573 39.1861 135.951 38.8962 134.311C38.7925 133.794 38.6902 133.241 38.62 132.724C38.4827 131.931 38.379 131.139 38.3103 130.345C38.2065 129.62 38.1379 128.897 38.1028 128.137C37.9761 126.808 37.9197 125.473 37.9304 124.138C37.9304 123.207 37.9654 122.276 38.0005 121.346C38.0341 120.758 38.0692 120.207 38.1028 119.655C38.1379 119.104 38.2065 118.483 38.2752 117.897C38.3454 117.413 38.379 116.966 38.4476 116.483C38.4476 116.414 38.4827 116.345 38.4827 116.277C38.62 115.448 38.7238 114.621 38.8962 113.792C39.0687 112.828 39.3097 111.827 39.5173 110.896C39.5524 110.793 39.5524 110.724 39.5859 110.62C39.5859 110.587 39.621 110.518 39.621 110.483C39.6485 110.442 39.6607 110.393 39.6546 110.345H51.7243C52.9435 110.352 54.0741 109.708 54.6891 108.655L61.345 97.551L69.1727 118.448C69.6534 119.684 70.784 120.549 72.1039 120.689H72.4137C73.6329 120.697 74.7635 120.053 75.38 119L84.7245 103.448H103.966C105.156 101.297 105.995 98.9685 106.448 96.5515H82.7591C81.54 96.5454 80.4093 97.1893 79.7928 98.2407L73.1385 109.344L65.3107 88.4476C64.8285 87.2116 63.6979 86.348 62.3795 86.2076C61.055 86.1008 59.784 86.7554 59.1034 87.8967L49.759 103.448H41.9663C41.9999 103.31 42.0685 103.172 42.1036 103.069C42.3111 102.62 42.4836 102.173 42.6896 101.759C42.6896 101.724 42.7247 101.689 42.7247 101.656C42.7933 101.483 42.862 101.344 42.9307 101.172C43.2755 100.449 43.6204 99.7238 43.9652 99.0341C44.0339 98.9304 44.069 98.793 44.1376 98.6893C44.2765 98.4482 44.3787 98.2407 44.5176 97.9996C44.7236 97.6212 44.9311 97.2077 45.1722 96.8277V96.759C45.3797 96.3791 45.6208 96.0007 45.8619 95.6207C45.9763 95.4056 46.103 95.1996 46.2418 94.9997C46.4142 94.7235 46.5867 94.4138 46.7927 94.1376C47.1039 93.6554 47.4488 93.1717 47.7936 92.6544C48.2407 91.9998 48.7244 91.3452 49.2066 90.6891C49.8597 89.7888 50.5616 88.9252 51.3108 88.1027C51.3871 88.031 51.4573 87.9501 51.5168 87.8616H51.5519C51.5778 87.8098 51.6129 87.764 51.6556 87.7243C52.414 86.8622 53.2074 86.0352 53.9994 85.2066C54.5868 84.6207 55.1728 84.0683 55.7587 83.5175C56.9657 82.4143 58.2062 81.3797 59.4834 80.3787C60.0007 80.0003 60.5179 79.6204 61.0352 79.2069C61.1573 79.1382 61.2732 79.0573 61.3801 78.9658C62.0698 78.5172 62.7579 78.035 63.4827 77.5864C64.2075 77.1378 64.8621 76.7242 65.5869 76.3107L66.5177 75.7935C66.6016 75.7233 66.6932 75.6653 66.7939 75.621C66.8625 75.5859 66.9663 75.5524 67.035 75.5173C67.1769 75.4242 67.3264 75.3433 67.4836 75.2762C67.5553 75.2167 67.6362 75.1709 67.7247 75.1373C68.7668 74.5773 69.8365 74.0707 70.9305 73.6206C71.605 73.2987 72.2962 73.0103 72.9996 72.7585H73.0347C73.0347 72.7402 73.05 72.7234 73.0683 72.7234C73.1324 72.6852 73.2026 72.6624 73.2758 72.6547C73.8251 72.4121 74.3897 72.2046 74.965 72.0352C75.5173 71.8277 76.0697 71.6553 76.6556 71.4829C76.9318 71.4142 77.1729 71.3104 77.4491 71.2418C77.9999 71.0342 78.5523 70.8969 79.1382 70.7245C79.5518 70.6558 79.9317 70.5521 80.3452 70.4483C80.9662 70.311 81.5857 70.1721 82.2419 70.0348C82.8965 69.8959 83.5175 69.7937 84.1385 69.6899C84.5521 69.6213 84.9656 69.5511 85.3791 69.5175C85.5866 69.4824 85.8277 69.4489 86.0688 69.4138L87.9304 69.2062H88.0005C88.8276 69.1376 89.6897 69.0689 90.5518 69.0338C91.4139 69.0003 92.241 68.9652 93.1031 68.9652C94.4382 68.9529 95.7734 69.0109 97.1039 69.1376C97.8623 69.1727 98.5856 69.2413 99.3104 69.3451C100.104 69.4138 100.897 69.5175 101.689 69.6549C102.206 69.7235 102.724 69.8273 103.241 69.931C103.241 69.931 103.276 69.8959 103.276 69.931C104.916 70.221 106.54 70.6009 108.138 71.0693C108.862 71.2753 109.586 71.4829 110.275 71.7239C111.137 72.0001 112 72.3099 112.828 72.6212C114.636 73.3109 116.409 74.0936 118.138 74.9649C122.089 82.7194 124.144 91.2979 124.138 100Z" fill="#41767F"/>
<path d="M118.138 74.9649C116.409 74.0936 114.636 73.3109 112.828 72.6212C112 72.3099 111.137 72.0001 110.275 71.7239C109.575 71.4691 108.861 71.2509 108.138 71.0693C106.543 70.5841 104.919 70.2042 103.276 69.931C103.276 69.8959 103.241 69.931 103.241 69.931C102.731 69.8059 102.213 69.7144 101.689 69.6548C100.897 69.5175 100.104 69.4138 99.3103 69.3451C98.5855 69.2413 97.8622 69.1727 97.1039 69.1376C95.7733 69.0109 94.4382 68.9529 93.103 68.9651C92.2409 68.9651 91.3788 68.9651 90.5518 69.0338C89.7247 69.104 88.8275 69.1376 88.0005 69.2062H87.9303L86.0687 69.4138L85.379 69.5175C84.9655 69.5511 84.552 69.6213 84.1385 69.6899C83.5175 69.7937 82.8613 69.931 82.2418 70.0348L80.3452 70.4483C79.3793 70.6894 78.3798 70.9656 77.449 71.2418C77.179 71.3058 76.915 71.3867 76.6556 71.4828C76.0696 71.6553 75.5173 71.8277 74.9649 72.0352C74.3896 72.2046 73.8251 72.4121 73.2758 72.6547C73.2025 72.6624 73.1323 72.6852 73.0682 72.7234C73.0499 72.7234 73.0347 72.7402 73.0347 72.7585H72.9996C72.2961 73.0103 71.6049 73.2986 70.9305 73.6206C69.8364 74.0707 68.7668 74.5773 67.7246 75.1373C63.7894 71.1838 58.4396 68.9621 52.8625 68.9651C47.0078 68.9926 41.423 71.4233 37.4146 75.6897C30.397 83.2306 29.007 94.4199 33.9661 103.448H24.1379C22.2336 103.448 20.6894 104.993 20.6894 106.897C20.6894 108.801 22.2336 110.345 24.1379 110.345H39.4821L37.4146 108.173C36.0657 106.754 34.906 105.165 33.9661 103.448H41.9662C41.626 104.19 41.3254 104.95 41.069 105.724C41.0339 105.862 40.9653 106 40.9317 106.139C40.7928 106.552 40.6204 107.001 40.5167 107.448C40.2069 108.414 39.8972 109.38 39.6545 110.345C39.6606 110.393 39.6484 110.442 39.621 110.483C39.621 110.518 39.5859 110.587 39.5859 110.62C39.5523 110.724 39.5523 110.793 39.5172 110.896C39.2761 111.862 39.0686 112.828 38.8962 113.792C38.7238 114.621 38.62 115.448 38.4827 116.277C38.4827 116.345 38.4476 116.414 38.4476 116.483C38.3789 116.966 38.3453 117.413 38.2751 117.897C38.2065 118.483 38.1729 119.069 38.1027 119.655C38.0341 120.241 38.0341 120.758 38.0005 121.346C37.9654 122.276 37.9303 123.207 37.9303 124.138C37.9196 125.473 37.9761 126.808 38.1027 128.137C38.1378 128.897 38.2065 129.62 38.3102 130.345C38.3789 131.139 38.4827 131.931 38.62 132.724C38.6795 133.258 38.7711 133.788 38.8962 134.311C39.1693 135.954 39.5493 137.578 40.0345 139.172C40.2161 139.896 40.4358 140.61 40.6891 141.31C40.9653 142.172 41.2766 143.034 41.5863 143.861C42.276 145.671 43.0588 147.444 43.9316 149.173C28.7216 141.443 17.9489 127.106 14.7583 110.345V110.242C14.1205 106.865 13.797 103.436 13.7924 100C13.7985 96.5302 14.122 93.0664 14.7583 89.6545C19.1711 66.4749 37.8357 48.6679 61.1969 45.3476C84.5566 42.0288 107.443 53.9322 118.138 74.9649Z" fill="#679199"/>
<path d="M14.7583 110.345H3.44849C1.54419 110.345 0 108.801 0 106.897V93.103C0 91.1987 1.54419 89.6545 3.44849 89.6545H14.7583V110.345Z" fill="#2C2F38"/>
<path d="M40.9318 106.139C40.9653 106 41.034 105.862 41.0691 105.724C41.3254 104.95 41.626 104.19 41.9663 103.449H49.759L59.1034 87.8967C59.784 86.7554 61.055 86.1008 62.3795 86.2076C63.6979 86.348 64.8285 87.2116 65.3107 88.4476L73.1385 109.344L79.7928 98.2407C80.4093 97.1893 81.54 96.5454 82.7591 96.5515H106.448C107.947 89.0488 105.739 81.2821 100.517 75.6897C97.197 72.1756 92.7857 69.8898 88.0005 69.2063H87.9303C86.9858 69.0399 86.0291 68.9591 85.0693 68.9652C80.7786 68.9591 76.5885 70.2713 73.0683 72.7234C73.05 72.7234 73.0347 72.7402 73.0347 72.7585H72.9996C71.7789 73.6206 70.6467 74.6018 69.6213 75.6897L68.9652 76.3794L68.3106 75.6897C68.1321 75.4883 67.9352 75.3037 67.7247 75.1373C63.7894 71.1838 58.4397 68.9621 52.8626 68.9652C47.0078 68.9926 41.4231 71.4234 37.4146 75.6897C30.3971 83.2306 29.007 94.4199 33.9661 103.449C34.9061 105.165 36.0657 106.754 37.4146 108.173L39.4822 110.345L39.621 110.483L68.9652 141.379L99.8627 108.862L100.517 108.173C101.866 106.754 103.024 105.165 103.966 103.449H84.7245L75.38 119C74.7635 120.053 73.6329 120.697 72.4137 120.689H72.1039C70.784 120.549 69.6534 119.684 69.1727 118.448L61.345 97.551L54.6891 108.655C54.0741 109.708 52.9435 110.352 51.7243 110.345H39.6546C39.8972 109.38 40.207 108.414 40.5167 107.448C40.6205 107.001 40.7929 106.552 40.9318 106.139ZM52.118 87.2421C52.3179 87.0133 52.5269 86.7966 52.7344 86.5753C52.5269 86.7859 52.3179 87.0072 52.118 87.2421ZM63.4965 77.5864H63.472L63.5346 77.5482L63.4965 77.5864Z" fill="#DF4D60"/>
<path d="M67.7247 75.1373C56.038 81.2027 46.9025 91.243 41.9663 103.448H33.9661C29.007 94.4199 30.3971 83.2306 37.4146 75.6897C41.4231 71.4233 47.0078 68.9926 52.8626 68.9652C58.4397 68.9621 63.7894 71.1838 67.7247 75.1373Z" fill="#FF5364"/>
<path d="M68.9652 41.3788C40.5976 41.4017 16.3163 61.7325 11.3099 89.6545C10.0235 96.492 10.0235 103.508 11.3099 110.345C16.7969 140.874 45.1233 161.839 75.9232 158.167C106.725 154.495 129.327 127.457 127.483 96.4935C125.638 65.5304 99.9833 41.3681 68.9652 41.3788ZM68.9652 151.724C59.2789 151.75 49.7834 149.023 41.5863 143.861C19.7327 130.199 11.2809 102.527 21.7713 78.9856C32.2617 55.4443 58.4885 43.2251 83.2596 50.3387C108.032 57.4524 123.781 81.7246 120.183 107.245C116.583 132.765 94.7388 151.738 68.9652 151.724Z" fill="#2C3E50"/>
<path d="M113.792 96.5515H82.7591C81.5399 96.5454 80.4092 97.1893 79.7928 98.2406L73.1384 109.344L65.3107 88.4476C64.8285 87.2116 63.6978 86.3479 62.3795 86.2076C61.055 86.1008 59.7839 86.7554 59.1034 87.8967L49.7589 103.448H41.9662C41.655 104.172 41.3452 104.932 41.069 105.724C41.0339 105.862 40.9653 106 40.9317 106.139C40.7928 106.552 40.6204 107.001 40.5167 107.448C40.2069 108.414 39.8972 109.38 39.6545 110.345H51.7242C52.9434 110.352 54.0741 109.708 54.689 108.655L61.3449 97.5509L69.1727 118.448C69.6533 119.684 70.784 120.549 72.1039 120.689H72.4136C73.6328 120.697 74.7635 120.053 75.3799 119L84.7244 103.448H113.792C115.698 103.448 117.241 101.904 117.241 100C117.241 98.0957 115.698 96.5515 113.792 96.5515Z" fill="#E6E7E8"/>
<path d="M33.9661 103.448H24.1379C22.2336 103.448 20.6894 104.993 20.6894 106.897C20.6894 108.801 22.2336 110.345 24.1379 110.345H39.6546C39.8972 109.38 40.2069 108.414 40.5167 107.448C40.6205 107.001 40.7929 106.552 40.9317 106.139C40.9653 106 41.034 105.862 41.0691 105.724C41.3254 104.95 41.626 104.19 41.9663 103.448H33.9661Z" fill="white"/>
</g>
<defs>
<filter id="filter0_d" x="0" y="0" width="127.588" height="206" filterUnits="userSpaceOnUse" color-interpolation-filters="sRGB">
<feFlood flood-opacity="0" result="BackgroundImageFix"/>
<feColorMatrix in="SourceAlpha" type="matrix" values="0 0 0 0 0 0 0 0 0 0 0 0 0 0 0 0 0 0 127 0"/>
<feOffset dy="6"/>
<feColorMatrix type="matrix" values="0 0 0 0 0.270588 0 0 0 0 0.356863 0 0 0 0 0.443137 0 0 0 1 0"/>
<feBlend mode="normal" in2="BackgroundImageFix" result="effect1_dropShadow"/>
<feBlend mode="normal" in="SourceGraphic" in2="effect1_dropShadow" result="shape"/>
</filter>
</defs>
</svg>
