<svg width="513" height="358" viewBox="0 0 513 358" fill="none" xmlns="http://www.w3.org/2000/svg">
<rect width="513" height="358" fill="#DAE3EA"/>
<path fill-rule="evenodd" clip-rule="evenodd" d="M284 158V200C284 203.3 281.3 206 278 206H236C232.7 206 230 203.3 230 200V158C230 154.7 232.7 152 236 152H278C281.3 152 284 154.7 284 158ZM254 192.53L247.7 184.94C247.07 184.19 245.93 184.22 245.36 185L237.89 194.6C237.11 195.59 237.8 197.03 239.06 197.03H275.03C276.26 197.03 276.98 195.62 276.23 194.63L265.7 180.59C265.1 179.78 263.9 179.78 263.3 180.56L254 192.53Z" fill="#94A3B1"/>
</svg>
