<svg width="990" height="878" viewBox="0 0 990 878" fill="none" xmlns="http://www.w3.org/2000/svg">
<path d="M842.957 844.886C842.957 862.674 654.256 877.094 421.479 877.094C188.702 877.094 0 862.674 0 844.886C0 827.097 188.702 812.677 421.479 812.677C654.256 812.677 842.957 827.097 842.957 844.886Z" fill="#CBCBCB"/>
<path d="M381.713 132.764L399.604 119.98V104.456L442.412 75.9977L444.528 123.744L449.702 125.389L456.053 141.35V170.548C456.053 170.548 447.115 187.484 446.409 187.72C445.703 187.953 422.889 198.067 422.185 198.067C421.479 198.067 396.782 196.185 396.547 195.478C396.311 194.774 390.431 172.9 389.492 169.842C388.55 166.787 381.931 160.434 381.713 157.378C381.496 154.318 380.083 148.205 379.848 147.499C379.613 146.793 381.713 132.764 381.713 132.764Z" fill="#D8768C"/>
<path d="M412.306 179.644C390.865 173.311 385.469 141.005 384.299 130.918L381.714 132.764C381.714 132.764 380.699 139.542 380.159 143.913C380.537 147.878 381.278 152.959 382.594 155.182C383.341 156.452 385.835 161.865 388.689 168.22C389.057 168.821 389.346 169.373 389.49 169.842C389.532 169.97 389.583 170.146 389.639 170.338C394.328 180.826 399.559 192.849 399.605 193.128C399.682 193.599 437.786 187.171 412.306 179.644Z" fill="#373031"/>
<path d="M460.902 63.1871C459.725 56.6208 455.06 49.5106 443.187 47.2658C443.187 47.2658 442.673 47.1649 441.741 46.9573C440.881 48.4802 439.809 49.9022 438.559 51.166C440.408 51.6703 450.369 54.8012 451.715 64.0197C453.197 74.1876 460.896 76.4027 460.896 76.4027L461.848 71.5848L467.939 73.4024C467.939 73.4024 462.077 69.7553 460.902 63.1871" fill="#F7941E"/>
<path d="M564.118 469.49C564.118 469.49 548.991 524.657 465.34 532.523C465.34 532.523 472.154 497.085 480.152 485.56C488.148 474.035 524.134 461.571 525.309 460.394C526.486 459.218 542.243 454.514 542.243 454.514L564.118 469.49Z" fill="#231B1D"/>
<path d="M526.172 419.939C526.172 419.939 660.401 626.477 676.534 761.01L650.907 774.337C650.907 774.337 535.355 669.723 529.71 588.343C529.71 588.343 468.313 541.617 449.967 495.517C431.621 449.418 501.085 444.401 501.085 444.401L526.172 419.939Z" fill="#D8768C"/>
<path d="M559.877 475.54C540.273 441.642 526.172 419.94 526.172 419.94L501.085 444.401C501.085 444.401 431.621 449.419 449.967 495.518C456.652 512.315 469.053 529.184 482.116 543.857C501.791 503.737 536.452 484.414 559.877 475.54Z" fill="#B54D68"/>
<path d="M278.477 466.589C278.477 466.589 293.603 521.756 377.254 529.62C377.254 529.62 370.44 494.184 362.444 482.659C354.448 471.134 318.46 458.668 317.285 457.494C316.108 456.317 300.351 451.614 300.351 451.614L278.477 466.589Z" fill="#231B1D"/>
<path d="M316.423 417.039C316.423 417.039 182.196 623.576 166.061 758.114L191.689 771.437C191.689 771.437 307.24 666.821 312.884 585.443C312.884 585.443 374.281 538.717 392.627 492.617C410.973 446.518 341.511 441.498 341.511 441.498L316.423 417.039Z" fill="#D8768C"/>
<path d="M341.51 441.499L326.896 427.251C321.734 427.389 315.609 427.593 309.602 427.81C303.785 437.132 294.634 452.086 283.679 470.978C283.703 470.994 337.711 502.021 352.309 549.789C368.153 533.298 384.555 512.899 392.628 492.617C410.974 446.518 341.51 441.499 341.51 441.499Z" fill="#B54D68"/>
<path d="M326.144 367.803C326.144 367.803 283.807 439.304 278.477 466.59C278.477 466.59 346.825 472.231 377.254 529.62L413.01 496.692L461.227 527.583C461.227 527.583 489.844 461.256 564.166 469.408C564.166 469.408 558.207 408.884 528.415 393.204C498.623 377.526 426.808 378.778 425.868 378.151C424.927 377.526 345.9 355.572 345.9 355.572L326.144 367.803Z" fill="#373031"/>
<path d="M415.206 466.274H380.082C380.082 466.274 373.955 480.54 374.673 489.951C375.393 499.361 363.384 524.289 386.669 534.402C386.669 534.402 394.783 541.929 405.837 534.402C405.837 534.402 411.717 541.46 421.832 535.11C421.832 535.11 429.474 539.815 434.179 532.994C434.179 532.994 441.155 513.941 421.32 498.653C421.32 498.653 422.577 473.646 415.206 466.274" fill="#373031"/>
<path d="M438.942 466.274H474.066C474.066 466.274 480.195 480.54 479.477 489.951C478.757 499.361 490.764 524.289 467.481 534.402C467.481 534.402 459.367 541.929 448.311 534.402C448.311 534.402 442.433 541.46 432.318 535.11C432.318 535.11 424.674 539.815 419.971 532.994C419.971 532.994 412.995 513.941 432.828 498.653C432.828 498.653 431.573 473.646 438.942 466.274" fill="#373031"/>
<path d="M393.254 36.7196C393.254 36.7196 384.315 84.4656 387.61 108.456C387.61 108.456 431.576 114.318 435.348 80.694C435.348 80.694 450.878 75.2926 454.171 64.7074C457.464 54.1242 448.055 54.2429 442.529 57.888L442.646 48.8336C442.646 48.8336 411.011 23.6661 393.254 36.7196Z" fill="#D8768C"/>
<path d="M392.968 38.3071C392.968 38.3071 367.97 41.8929 362.913 27.5479C357.858 13.199 371.499 3.55524 385.727 5.90882C385.727 5.90882 393.842 -4.91171 409.953 2.73248C426.064 10.3767 424.535 24.1362 424.535 24.1362C424.535 24.1362 430.534 8.14374 436.531 10.1413C442.529 12.1409 431.709 28.252 431.709 28.252C431.709 28.252 443.587 15.4339 446.88 22.2553C450.173 29.0748 438.53 31.3097 438.53 31.3097C438.53 31.3097 454.993 33.4259 442.646 48.833C430.299 64.238 422.049 54.5943 417.939 51.3013C413.833 48.0102 407.601 45.892 406.425 46.0107C405.248 46.1273 392.968 38.3071 392.968 38.3071Z" fill="#373031"/>
<path d="M401.407 54.5168L394.509 77.4098L405.327 72.8609" stroke="#231F20" stroke-width="1.33333" stroke-miterlimit="10"/>
<path d="M397.253 83.054C397.253 83.054 406.072 86.3471 412.306 79.5256" stroke="#231F20" stroke-width="1.33333" stroke-miterlimit="10"/>
<path d="M415.127 61.3569C415.127 62.5574 414.678 63.5325 414.128 63.5325C413.576 63.5325 413.13 62.5574 413.13 61.3569C413.13 60.1544 413.576 59.1813 414.128 59.1813C414.678 59.1813 415.127 60.1544 415.127 61.3569Z" stroke="#231F20" stroke-width="1.33333" stroke-miterlimit="10"/>
<path d="M395.724 60.6511C395.724 61.464 395.451 62.1206 395.117 62.1206C394.78 62.1206 394.51 61.464 394.51 60.6511C394.51 59.8382 394.78 59.1816 395.117 59.1816C395.451 59.1816 395.724 59.8382 395.724 60.6511Z" stroke="#231F20" stroke-width="1.33333" stroke-miterlimit="10"/>
<path d="M407.994 476.153C407.994 479.009 405.678 481.327 402.82 481.327H390.59C387.732 481.327 385.416 479.009 385.416 476.153C385.416 473.295 387.732 470.979 390.59 470.979H402.82C405.678 470.979 407.994 473.295 407.994 476.153Z" fill="#33869A"/>
<path d="M472.596 476.153C472.596 479.009 470.278 481.327 467.42 481.327H450.174C447.316 481.327 444.998 479.009 444.998 476.153C444.998 473.295 447.316 470.979 450.174 470.979H467.42C470.278 470.979 472.596 473.295 472.596 476.153Z" fill="#33869A"/>
<path d="M341.35 369.791L290.746 468.602" stroke="#FFFDFE" stroke-width="1.33333" stroke-miterlimit="10"/>
<path d="M525.907 395.715C525.907 395.715 549.093 419.018 555.847 468.603" stroke="white" stroke-width="1.33333" stroke-miterlimit="10"/>
<path d="M286.002 587.638L312.885 585.444L296.038 571.41" stroke="#FFFDFE" stroke-width="1.33333" stroke-miterlimit="10"/>
<path d="M540.876 563.805L529.709 588.343L555.308 585.679" stroke="#FFFDFE" stroke-width="1.33333" stroke-miterlimit="10"/>
<path d="M191.688 771.437C191.688 771.437 221.763 744.206 251.973 706.721C200.278 708.282 187.341 672.77 187.309 672.685C176.954 702.53 169.226 731.707 166.06 758.114L191.688 771.437Z" fill="white"/>
<path d="M121.613 831.505C121.613 831.505 113.077 846.86 125.777 857.837C138.478 868.808 194.141 861.443 200.259 852.661C206.372 843.878 208.255 837.921 205.745 827.573C203.237 817.223 203.708 811.108 208.725 809.15L185.047 804.522L162.469 813.461L150.082 825.377L135.97 828.825L121.613 831.505Z" fill="#E5CCD0"/>
<path d="M160.979 762.815C160.979 762.815 169.213 751.528 183.322 754.819C197.436 758.114 207.548 785.629 208.725 809.151C208.725 809.151 198.846 809.386 198.846 819.028C198.846 828.674 198.611 840.667 173.445 845.604C148.28 850.544 119.819 851.252 121.465 832.667C123.112 814.091 160.979 762.815 160.979 762.815Z" fill="#373031"/>
<path d="M179.244 811.611C171.194 807.853 163.145 804.093 155.095 800.335V802.471C164.608 797.916 174.121 793.366 183.635 788.817C184.483 788.407 184.394 787.112 183.635 786.681C177.652 783.281 171.667 779.885 165.686 776.485L165.389 778.746C171.374 776.707 177.355 774.665 183.338 772.63C184.839 772.12 184.194 769.729 182.681 770.247C176.698 772.282 170.716 774.321 164.733 776.362C163.754 776.695 163.461 778.065 164.438 778.621C170.421 782.017 176.404 785.417 182.387 788.817V786.681C172.873 791.23 163.36 795.784 153.847 800.335C153.044 800.717 153.034 802.09 153.847 802.471C161.897 806.229 169.946 809.989 177.996 813.747C179.432 814.415 180.688 812.283 179.244 811.611Z" fill="#27AAE1"/>
<path d="M149.94 813.082C160.602 808.745 171.265 804.41 181.927 800.072C182.799 799.716 183.307 798.322 182.222 797.812C174.33 794.099 166.437 790.391 158.545 786.679L158.251 788.939C166.613 786.428 174.977 783.922 183.339 781.41C184.265 781.133 184.676 779.606 183.634 779.151C176.892 776.226 170.149 773.299 163.407 770.37C161.959 769.741 160.699 771.873 162.159 772.506C168.901 775.431 175.644 778.358 182.386 781.287L182.683 779.027C174.318 781.538 165.956 784.044 157.594 786.556C156.645 786.837 156.281 788.336 157.297 788.815C165.189 792.523 173.082 796.235 180.974 799.948L181.27 797.689C170.608 802.026 159.946 806.362 149.283 810.699C147.828 811.294 148.463 813.686 149.94 813.082Z" fill="#27AAE1"/>
<path d="M175.894 774.284C176.469 766.43 174.707 758.25 170.37 751.66C165.955 744.953 153.653 739.379 147.071 745.942C140.058 752.933 150.542 764.638 155.417 768.795C161.286 773.797 168.878 777.146 176.572 776.675C191.138 775.779 228.713 769.294 217.611 745.788C208.624 726.755 178.146 767.268 173.589 773.663C172.662 774.964 174.808 776.196 175.726 774.909C183.174 764.46 191.888 752.991 202.924 746.165C206.544 743.822 210.432 743.737 214.591 745.914C219.395 749.674 215.438 757.89 213.46 761.562C211.336 765.508 206.346 767.702 202.43 769.286C195.709 772.001 188.205 773.059 181.05 773.829C167.767 775.253 153.798 769.29 148.414 755.932C144.298 745.726 155.605 744.767 162.265 747.75C167.154 749.943 169.956 755.028 171.677 759.794C173.303 764.306 173.771 769.509 173.421 774.284C173.305 775.876 175.777 775.864 175.894 774.284Z" fill="#27AAE1"/>
<path d="M168.741 674.192C168.741 674.192 184.709 720.293 261.543 719.666" stroke="#231F20" stroke-width="1.33333" stroke-miterlimit="10"/>
<path d="M158.054 683.598C158.054 683.598 183.457 736.914 270.636 727.816" stroke="#231F20" stroke-width="1.33333" stroke-miterlimit="10"/>
<path d="M658.768 685.885C636.047 706.803 612.832 713.915 595.769 715.924C624.157 750.118 650.908 774.339 650.908 774.339L676.535 761.01C673.734 737.656 667.368 712.127 658.768 685.885Z" fill="white"/>
<path d="M720.984 834.406C720.984 834.406 729.52 849.761 716.818 860.736C704.119 871.713 648.452 864.348 642.337 855.562C636.223 846.783 634.34 840.822 636.85 830.474C639.356 820.124 638.885 814.009 633.87 812.051L657.548 807.423L680.126 816.358L692.511 828.279L706.625 831.728L720.984 834.406Z" fill="#E5CCD0"/>
<path d="M681.615 765.716C681.615 765.716 673.383 754.425 659.272 757.72C645.16 761.011 635.046 788.53 633.869 812.052C633.869 812.052 643.748 812.283 643.748 821.929C643.748 831.571 643.983 843.564 669.149 848.505C694.316 853.445 722.777 854.149 721.129 835.568C719.484 816.988 681.615 765.716 681.615 765.716Z" fill="#373031"/>
<path d="M664.6 816.644C672.65 812.89 680.699 809.131 688.747 805.377C689.562 804.993 689.55 803.622 688.747 803.241C679.234 798.686 669.72 794.135 660.207 789.58V791.716C666.19 788.318 672.173 784.922 678.156 781.523C679.133 780.967 678.84 779.6 677.861 779.264C671.878 777.223 665.895 775.188 659.911 773.149C658.397 772.63 657.755 775.018 659.254 775.532C665.237 777.571 671.22 779.606 677.204 781.647L676.908 779.387C670.925 782.786 664.942 786.182 658.959 789.58C658.2 790.013 658.109 791.307 658.959 791.716C668.472 796.267 677.988 800.822 687.501 805.377V803.241C679.451 806.995 671.402 810.752 663.352 814.508C661.908 815.185 663.164 817.313 664.6 816.644Z" fill="#27AAE1"/>
<path d="M693.311 813.604L661.324 800.59L661.619 802.851C669.512 799.138 677.405 795.426 685.297 791.718C686.315 791.237 685.95 789.74 685.002 789.457C676.638 786.945 668.276 784.435 659.912 781.928L660.207 784.188C666.949 781.259 673.693 778.332 680.435 775.409C681.895 774.774 680.633 772.642 679.187 773.271C672.445 776.2 665.703 779.123 658.959 782.052C657.916 782.503 658.328 784.034 659.255 784.311C667.617 786.819 675.981 789.331 684.346 791.84L684.049 789.582C676.157 793.292 668.264 797.004 660.371 800.713C659.287 801.223 659.793 802.617 660.667 802.973L692.654 815.987C694.132 816.587 694.767 814.195 693.311 813.604Z" fill="#27AAE1"/>
<path d="M669.173 777.185C668.862 772.941 669.406 768.678 670.375 764.549C671.433 760.041 673.708 756.198 676.967 752.957C682.313 747.641 696.346 745.722 694.686 757.009C692.679 770.676 675.432 777.895 663.172 776.884C656.028 776.297 648.963 775.025 642.124 772.881C638.014 771.596 634.221 769.655 631.003 766.79C624.73 761.192 622.503 744.757 635.963 747.476C648.289 749.962 660.051 768.243 666.869 777.81C667.786 779.097 669.932 777.865 669.005 776.564C662.687 767.701 638.022 732.117 625.175 748.438C619.641 755.471 626.379 766.616 632.243 770.951C641.036 777.456 654.118 778.611 664.671 779.479C678.057 780.589 705.527 764.958 695.717 749.094C690.495 740.649 676.51 749.252 672.42 754.31C667.557 760.316 666.149 769.655 666.7 777.185C666.817 778.765 669.289 778.777 669.173 777.185Z" fill="#27AAE1"/>
<path d="M567.617 734.403C567.617 734.403 647.899 731.136 671.105 685.886" stroke="#231F20" stroke-width="1.33333" stroke-miterlimit="10"/>
<path d="M572.948 742.558C572.948 742.558 653.231 739.294 676.435 694.044" stroke="#231F20" stroke-width="1.33333" stroke-miterlimit="10"/>
<path d="M445.116 60.6511C445.116 60.6511 449.453 58.2402 450.752 60.6511C452.054 63.0621 443.352 70.906 443.352 70.906" stroke="#231F20" stroke-width="0.666667" stroke-miterlimit="10"/>
<path d="M447.466 66.764C447.466 66.764 448.615 63.9437 446.408 62.7669" stroke="#231F20" stroke-width="0.666667" stroke-miterlimit="10"/>
<path d="M431.743 52.7911L436.613 74.2739L442.536 57.3143L442.647 48.8335L431.743 52.7911Z" fill="#373031"/>
<path d="M399.605 108.703C399.605 108.703 420.067 108.77 428.378 93.873C428.378 93.873 429.316 113.944 399.605 119.98V108.703Z" fill="#373031"/>
<path d="M358.759 396.97C376.007 434.288 403.916 456.241 468.519 448.714C500.179 445.025 528.201 429.814 548.568 415.259C543.525 405.88 536.952 397.696 528.414 393.205C498.625 377.525 426.809 378.779 425.867 378.152C424.926 377.525 345.899 355.571 345.899 355.571L326.143 367.802C326.143 367.802 325.91 368.199 325.51 368.88C335.725 370.25 349.242 376.384 358.759 396.97Z" fill="#191314"/>
<path d="M326.144 367.803C326.144 367.803 354.64 364.045 385.102 402.299C415.562 440.556 497.369 436.169 540.019 397.282C540.019 397.282 479.184 307.593 472.912 229.193C466.636 150.791 466.951 130.408 466.951 130.408C466.951 130.408 459.109 127.9 449.702 125.39C449.702 125.39 458.171 177.448 422.108 180.27C386.041 183.092 381.714 132.765 381.714 132.765L366.58 141.351C366.58 141.351 399.528 236.72 354.996 298.184C310.464 359.648 326.144 367.803 326.144 367.803Z" fill="white"/>
<path d="M366.579 141.351C366.579 141.351 302.938 163.965 314.227 229.193C325.516 294.422 380.084 466.275 380.084 466.275H415.205C415.205 466.275 424.153 341.278 375.776 246.662C375.776 246.662 386.318 187.418 366.579 141.351" fill="#D8768C"/>
<path d="M465.146 129.842C465.146 129.842 538.45 161.77 540.018 210.376C541.588 258.984 474.066 466.273 474.066 466.273H438.941C438.941 466.273 422.98 344.081 474.6 243.36C474.6 243.36 461.774 188.547 465.146 129.842" fill="#D8768C"/>
<path d="M380.083 466.274H415.207" stroke="white" stroke-width="1.33333" stroke-miterlimit="10"/>
<path d="M438.942 466.274H474.066" stroke="white" stroke-width="1.33333" stroke-miterlimit="10"/>
<path d="M345.273 227.467L375.776 246.661L357.033 258.985" stroke="#FFFDFE" stroke-width="1.33333" stroke-miterlimit="10"/>
<path d="M360.524 152.673C360.524 152.673 306.7 182.779 334.455 273.566" stroke="#FFFDFE" stroke-width="1.33333" stroke-miterlimit="10"/>
<path d="M339.695 293.323L383.376 457.024" stroke="#FFFDFE" stroke-width="1.33333" stroke-miterlimit="10"/>
<path d="M467.577 459.374L525.907 268.392" stroke="#FFFDFE" stroke-width="1.33333" stroke-miterlimit="10"/>
<path d="M529.2 243.36C529.2 243.36 545.693 171.489 481.939 147.5" stroke="#FFFDFE" stroke-width="1.33333" stroke-miterlimit="10"/>
<path d="M493.92 231.073L474.599 243.359L503.016 258.983" stroke="#FFFDFE" stroke-width="1.33333" stroke-miterlimit="10"/>
<path d="M471.72 133.007C467.646 130.932 465.146 129.842 465.146 129.842C461.776 188.547 474.6 243.36 474.6 243.36C465.775 190.853 469.519 149.391 471.72 133.007Z" fill="#373031"/>
<g opacity="0.300003">
<g opacity="0.300003">
<path opacity="0.300003" d="M388.976 466.274C372.582 438.178 361.159 395.37 364.372 340.833C368.734 266.825 352.486 274.349 331.161 227.467C320.05 203.035 329.538 176.355 341.173 156.395C324.907 169.739 307.936 192.848 314.227 229.192C325.517 294.422 380.082 466.274 380.082 466.274H388.976Z" fill="#D8768C"/>
</g>
</g>
<g opacity="0.300003">
<g opacity="0.300003">
<path opacity="0.300003" d="M474.066 466.274C474.066 466.274 541.59 258.983 540.02 210.375C539.417 191.72 528.242 175.522 514.706 162.643C523.274 182.031 528.671 206.722 518.695 231.073C497.369 283.13 484.011 293.795 488.809 343.344C492.956 386.176 485.533 431.366 458.94 466.274H474.066Z" fill="#D8768C"/>
</g>
</g>
<g opacity="0.300003">
<g opacity="0.300003">
<path opacity="0.300003" d="M191.688 771.436C191.688 771.436 305.056 668.785 312.676 587.75C312.445 590.027 307.961 626.782 259.661 654.123C223.853 674.39 187.185 721.857 184.386 767.643L191.688 771.436Z" fill="#D8768C"/>
</g>
</g>
<g opacity="0.300003">
<g opacity="0.300003">
<path opacity="0.300003" d="M650.908 774.338L658.61 770.333C655.449 721.424 600.441 676.807 576.399 657.574C545.039 632.484 529.711 588.344 529.711 588.344C535.353 669.722 650.908 774.338 650.908 774.338Z" fill="#D8768C"/>
</g>
</g>
<path d="M290.745 481.327C290.745 481.327 227.944 581.607 197.567 665.725" stroke="#FFFDFE" stroke-width="1.33333" stroke-miterlimit="10"/>
<path d="M555.846 493.519C555.846 493.519 624.891 594.66 646.645 681.343" stroke="#FFFDFE" stroke-width="1.33333" stroke-miterlimit="10"/>
<path d="M769.574 532.299H63.0316V518.187H769.574V532.299Z" fill="#373031"/>
<path d="M103.113 598.973C103.113 611.123 93.2656 620.968 81.116 620.968C68.9683 620.968 59.1189 611.123 59.1189 598.973V451.512C59.1189 439.367 68.9683 429.517 81.116 429.517C93.2656 429.517 103.113 439.367 103.113 451.512V598.973Z" fill="#373031"/>
<path d="M128.369 586.076C128.369 593.048 122.716 598.702 115.74 598.702C108.767 598.702 103.112 593.048 103.112 586.076V464.412C103.112 457.442 108.767 451.785 115.74 451.785C122.716 451.785 128.369 457.442 128.369 464.412V586.076Z" fill="#373031"/>
<path d="M144.12 563.532C144.12 567.883 140.594 571.41 136.245 571.41C131.896 571.41 128.369 567.883 128.369 563.532V486.954C128.369 482.605 131.896 479.078 136.245 479.078C140.594 479.078 144.12 482.605 144.12 486.954V563.532Z" fill="#373031"/>
<path d="M746.829 598.973C746.829 611.123 756.679 620.968 768.828 620.968C780.974 620.968 790.823 611.123 790.823 598.973V451.512C790.823 439.367 780.974 429.517 768.828 429.517C756.679 429.517 746.829 439.367 746.829 451.512V598.973Z" fill="#373031"/>
<path d="M721.575 586.076C721.575 593.048 727.227 598.702 734.203 598.702C741.177 598.702 746.829 593.048 746.829 586.076V464.412C746.829 457.442 741.177 451.785 734.203 451.785C727.227 451.785 721.575 457.442 721.575 464.412V586.076Z" fill="#373031"/>
<path d="M705.825 563.532C705.825 567.883 709.349 571.41 713.698 571.41C718.047 571.41 721.574 567.883 721.574 563.532V486.954C721.574 482.605 718.047 479.078 713.698 479.078C709.349 479.078 705.825 482.605 705.825 486.954V563.532Z" fill="#373031"/>
<path d="M432.917 48.4252C432.917 48.4252 416.92 47.8497 416.608 47.8497C416.297 47.8497 407.672 47.6024 406.26 46.746C404.85 45.8897 397.785 44.3213 397.399 43.7714C397.01 43.2236 396.023 42.4424 395.261 42.2841C394.502 42.1259 392.227 41.8906 392.227 41.8906L391.976 42.0112C392.016 42.4285 392.089 42.8814 392.212 43.3798C392.081 44.1808 391.941 45.0491 391.794 45.9628C396.395 48.5775 412.759 55.8736 442.792 48.623L432.917 48.4252Z" fill="#D8768C"/>
<path d="M392.067 43.5897C392.067 43.5897 409.248 54.438 442.647 48.8329C442.647 48.8329 454.877 47.4603 459.66 56.5542C464.442 65.6481 472.438 65.1794 472.438 65.1794L471.732 60.318L478.083 60.0035C478.083 60.0035 471.341 58.5162 468.048 52.7133C464.755 46.9124 459.502 42.8342 446.045 43.5897C446.045 43.5897 412.831 48.4393 392.968 38.307C392.968 38.307 391.115 39.7192 392.067 43.5897Z" fill="#F7941E"/>
<path d="M393.415 155.076L413.994 150.372" stroke="#FFFDFE" stroke-width="0.333333" stroke-miterlimit="10"/>
<path d="M413.993 150.372L415.858 156.396" stroke="#FFFDFE" stroke-width="0.333333" stroke-miterlimit="10"/>
<path d="M415.859 156.396L418.818 150.371" stroke="#FFFDFE" stroke-width="0.333333" stroke-miterlimit="10"/>
<path d="M418.817 150.372L446.571 153.384" stroke="#FFFDFE" stroke-width="0.333333" stroke-miterlimit="10"/>
<path d="M435.751 106.927L418.817 139.867" stroke="#FFFDFE" stroke-width="0.333333" stroke-miterlimit="10"/>
<path d="M405.646 121.992L409.724 137.031" stroke="#FFFDFE" stroke-width="0.333333" stroke-miterlimit="10"/>
<path d="M646.646 398.256H886.237C887.831 398.256 887.831 395.783 886.237 395.783H646.646C645.052 395.783 645.052 398.256 646.646 398.256Z" fill="black"/>
<path d="M620.304 250.237H935.16C936.752 250.237 936.752 247.764 935.16 247.764H620.304C618.71 247.764 618.71 250.237 620.304 250.237Z" fill="black"/>
<path d="M711.874 266.544H757.033C758.627 266.544 758.627 264.072 757.033 264.072H711.874C710.28 264.072 710.28 266.544 711.874 266.544Z" fill="black"/>
<path d="M227.045 252.284C227.045 289.36 196.988 319.416 159.913 319.416C122.839 319.416 92.7822 289.36 92.7822 252.284C92.7822 215.208 122.839 185.152 159.913 185.152C196.988 185.152 227.045 215.208 227.045 252.284Z" stroke="black" stroke-width="1.33333" stroke-miterlimit="10"/>
<path d="M159.913 252.284V202.621" stroke="black" stroke-width="1.33333" stroke-miterlimit="10"/>
<path d="M159.913 252.284H203.64" stroke="black" stroke-width="1.33333" stroke-miterlimit="10"/>
</svg>
