<svg width="1440" height="1215" viewBox="0 0 1440 1215" fill="none" xmlns="http://www.w3.org/2000/svg">
<path d="M0 268H1440V1214.58H0V268Z" fill="#92C8FF"/>
<path d="M1889 389C1889 337.916 1858.76 287.332 1800.02 240.136C1741.27 192.941 1655.16 150.058 1546.61 113.936C1438.06 77.8137 1309.19 49.1602 1167.36 29.6111C1025.53 10.062 873.515 0.000241908 720 0.000244141C566.485 0.000246374 414.473 10.062 272.643 29.6111C130.813 49.1602 1.94379 77.8137 -106.608 113.936C-215.16 150.058 -301.267 192.941 -360.015 240.136C-418.763 287.332 -449 337.916 -449 389L1889 389Z" fill="#92C8FF"/>
</svg>
