<svg width="2338" height="1336" viewBox="0 0 2338 1336" fill="none" xmlns="http://www.w3.org/2000/svg">
<path d="M0 389L2338 389V1335.58H0V389Z" fill="#92C8FF"/>
<path d="M2338 389C2338 337.916 2307.76 287.332 2249.02 240.136C2190.27 192.94 2104.16 150.057 1995.61 113.935C1887.06 77.8135 1758.19 49.1599 1616.36 29.6109C1474.53 10.0618 1322.52 -2.23296e-06 1169 0C1015.48 2.23296e-06 863.473 10.0618 721.643 29.6109C579.813 49.16 450.944 77.8135 342.392 113.935C233.84 150.057 147.733 192.941 88.9848 240.136C30.2371 287.332 -1.34207e-05 337.916 0 389L2338 389Z" fill="#92C8FF"/>
</svg>
