<svg width="903" height="630" viewBox="0 0 903 630" fill="none" xmlns="http://www.w3.org/2000/svg">
<path d="M550.413 557.811H712.948C714.031 557.811 714.031 556.135 712.948 556.135H550.413C549.331 556.135 549.331 557.811 550.413 557.811Z" fill="black"/>
<path d="M729.965 557.811H781.876C782.955 557.811 782.955 556.135 781.876 556.135H729.965C728.885 556.135 728.885 557.811 729.965 557.811Z" fill="black"/>
<path d="M112.63 521.222H270.908C271.988 521.222 271.988 519.544 270.908 519.544H112.63C111.55 519.544 111.55 521.222 112.63 521.222Z" fill="black"/>
<path d="M0.811137 498.244H95.2704C96.3494 498.244 96.3494 496.567 95.2704 496.567H0.811137C-0.270379 496.567 -0.270379 498.244 0.811137 498.244Z" fill="black"/>
<path d="M843.892 498.244H938.35C939.43 498.244 939.43 496.567 938.35 496.567H843.892C842.809 496.567 842.809 498.244 843.892 498.244Z" fill="black"/>
<path d="M532.544 457.399H746.136C747.215 457.399 747.215 455.721 746.136 455.721H532.544C531.461 455.721 531.461 457.399 532.544 457.399Z" fill="black"/>
<path d="M594.663 468.46H625.298C626.379 468.46 626.379 466.783 625.298 466.783H594.663C593.58 466.783 593.58 468.46 594.663 468.46Z" fill="black"/>
<path d="M478.143 401.201C483.826 395.501 489.372 389.668 495.057 383.97C495.82 383.202 494.635 382.017 493.87 382.782C488.187 388.481 482.641 394.315 476.958 400.014C476.192 400.783 477.378 401.967 478.143 401.201Z" fill="black"/>
<path d="M481.22 403.999H519.514C520.595 403.999 520.595 402.322 519.514 402.322H481.22C480.139 402.322 480.139 403.999 481.22 403.999Z" fill="black"/>
<path d="M479.829 407.583L496.742 424.495C497.506 425.261 498.693 424.074 497.927 423.309C492.291 417.672 486.654 412.036 481.015 406.399C480.25 405.633 479.063 406.818 479.829 407.583Z" fill="black"/>
<path d="M322.416 401.929C319.226 398.739 316.035 395.546 312.844 392.356C312.079 391.59 310.893 392.777 311.658 393.542C314.851 396.733 318.04 399.923 321.231 403.114C321.997 403.88 323.182 402.694 322.416 401.929Z" fill="black"/>
<path d="M320.549 403.279H301.402C300.319 403.279 300.319 404.957 301.402 404.957H320.549C321.629 404.957 321.629 403.279 320.549 403.279Z" fill="black"/>
<path d="M321.444 405.865C318.039 409.267 314.636 412.672 311.232 416.076C310.467 416.841 311.653 418.027 312.419 417.263C315.822 413.858 319.226 410.454 322.63 407.051C323.395 406.285 322.208 405.1 321.444 405.865Z" fill="black"/>
<path d="M666.771 606.013C666.771 618.807 563.134 629.178 435.289 629.178C307.446 629.178 203.808 618.807 203.808 606.013C203.808 593.219 307.446 582.848 435.289 582.848C563.134 582.848 666.771 593.219 666.771 606.013Z" fill="#528FCC"/>
<path d="M348.772 59.8423C348.772 59.8423 463.021 46.7187 489.011 64.6202C514.997 82.523 557.156 170.304 557.156 170.304C557.156 170.304 566.108 174.924 574.481 170.304C582.854 165.684 590.071 158.464 596.715 160.487C603.354 162.506 601.814 168.38 601.814 168.38C601.814 168.38 609.032 165.972 612.306 170.593C615.579 175.213 613.823 182.503 613.823 182.503C613.823 182.503 621.762 182.359 622.268 189.071C622.774 195.786 592.381 227.479 567.164 224.782C541.948 222.087 487.083 170.113 471.875 144.316C471.875 144.316 434.521 154.709 400.24 144.893C372.183 136.857 396.032 116.981 396.032 116.403C396.032 115.827 386.985 89.2614 386.406 88.8758C385.828 88.4902 348.772 59.8423 348.772 59.8423Z" fill="#D8768C"/>
<path d="M549.07 179.254C549.07 179.254 564.374 175.499 568.127 191.96C568.127 191.96 579.291 193.019 585.452 189.746C591.613 186.474 599.12 198.215 588.149 205.338C577.175 212.46 557.733 218.043 537.52 198.601" stroke="black" stroke-width="1.33333" stroke-miterlimit="10"/>
<path d="M601.815 168.379C601.815 168.379 589.5 179.436 577.076 181.853" stroke="black" stroke-width="1.33333" stroke-miterlimit="10"/>
<path d="M613.822 182.502C613.822 182.502 610.574 186.761 597.001 191.382" stroke="black" stroke-width="1.33333" stroke-miterlimit="10"/>
<path d="M553.96 163.815C553.96 163.815 536.653 171.819 533.188 186.942" stroke="black" stroke-width="1.33333" stroke-miterlimit="10"/>
<path d="M557.156 170.304C557.156 170.304 547.337 172.109 540.119 186.942" stroke="black" stroke-width="1.33333" stroke-miterlimit="10"/>
<g opacity="0.300003">
<g opacity="0.300003">
<path opacity="0.300003" d="M520.386 170.304C503.101 129.984 494.592 128.34 448.198 126.798C401.806 125.259 392.566 94.2719 392.566 94.2719L389.897 98.1487C392.657 106.005 396.033 116.05 396.033 116.403C396.033 116.981 372.183 136.857 400.239 144.893C434.52 154.71 471.876 144.316 471.876 144.316C487.084 170.113 541.948 222.087 567.164 224.782C577.442 225.881 588.575 221.268 598.129 214.963C561.302 229.529 534.189 202.499 520.386 170.304Z" fill="#D8768C"/>
</g>
</g>
<path d="M483.041 361.265C483.041 361.265 566.204 425.177 593.922 424.407C621.643 423.634 721.419 406.234 721.419 406.234L714.26 366.745C714.26 366.745 620.103 343.94 584.682 357.799C584.682 357.799 553.882 308.905 521.156 303.13C488.432 297.354 494.977 332.39 494.977 332.39L483.041 361.265Z" fill="#D8768C"/>
<path d="M483.041 361.265C483.041 361.265 566.204 425.177 593.922 424.407C621.643 423.634 721.419 406.234 721.419 406.234L714.26 366.745C714.26 366.745 620.103 343.94 584.682 357.799C584.682 357.799 553.882 308.905 521.156 303.13C488.432 297.354 494.977 332.39 494.977 332.39L483.041 361.265Z" fill="#D8768C"/>
<path d="M520.236 387.904C543.614 366.112 550.29 338.489 551.848 319.594C542.515 311.619 531.941 305.032 521.157 303.13C488.432 297.355 494.977 332.389 494.977 332.389L483.042 361.265C483.042 361.265 499.514 373.922 520.236 387.904" fill="#AF4561"/>
<path d="M351.757 293.504C351.757 293.504 259.355 358.956 278.606 411.317C297.855 463.675 402.184 545.392 402.184 545.392L430.881 517.335C430.881 517.335 406.719 440.577 347.522 392.064C347.522 392.064 380.246 386.675 413.357 355.874C446.467 325.073 400.652 299.663 400.652 299.663L351.757 293.504Z" fill="#D8768C"/>
<path d="M351.757 293.504C351.757 293.504 346.896 296.95 339.643 302.882C340.165 321.075 345.765 360.886 383.201 378.035C392.543 372.75 402.93 365.575 413.357 355.873C446.467 325.073 400.652 299.663 400.652 299.663L351.757 293.504Z" fill="#AF4561"/>
<path d="M272.746 104.853C274.706 103.254 265.504 93.6876 267.515 92.1542C276.247 85.4951 285.745 79.0202 293.552 71.0887L292.86 71.4302L261.918 41.9475L251.94 86.822L270.763 106.69L272.746 104.853Z" fill="#D8768C"/>
<path d="M265.907 22.23C261.079 18.7219 253.666 17.0289 244.618 22.935C244.618 22.935 244.222 23.1882 243.492 23.6335C243.883 25.1474 244.073 26.7288 244.049 28.3179C245.554 27.4987 253.917 23.3466 260.497 28.4582C267.752 34.0994 274.09 30.7562 274.09 30.7562L271.718 27.0611L276.772 24.458C276.772 24.458 270.733 25.7368 265.907 22.23Z" fill="#F7941E"/>
<path d="M205.88 47.0695C205.88 47.0695 229.695 83.3996 246.682 96.8335C246.682 96.8335 278.669 73.3738 260.27 49.3533C260.27 49.3533 266.941 36.2478 262.506 27.3802C258.073 18.5151 252.081 24.4213 250.774 30.1963L245.239 24.2811C245.239 24.2811 209.244 27.6489 205.88 47.0695Z" fill="#D8768C"/>
<path d="M206.678 48.27C206.678 48.27 192.779 66.0702 180.63 59.9486C168.478 53.8269 171.303 39.1583 181.935 31.859C181.935 31.859 180.468 19.8546 195.596 14.8041C210.719 9.75222 218.259 19.5728 218.259 19.5728C218.259 19.5728 212.219 5.5443 217.325 3.11641C222.432 0.691113 225.435 17.785 225.435 17.785C225.435 17.785 225.154 2.15823 231.503 4.51731C237.853 6.8764 231.729 15.5298 231.729 15.5298C231.729 15.5298 243.657 6.69593 245.24 24.2806C246.82 41.8679 235.523 40.7591 230.835 41.1798C226.148 41.5992 220.817 44.0985 220.128 44.8982C219.446 45.7058 206.678 48.27 206.678 48.27Z" fill="#373031"/>
<path d="M254.155 30.3749C254.155 30.3749 255.457 26.132 257.79 26.8837C260.123 27.6302 259.37 38.0806 259.37 38.0806" stroke="#231F20" stroke-width="0.666667" stroke-miterlimit="10"/>
<path d="M259.458 32.8601C259.458 32.8601 258.449 30.3296 256.298 30.9386" stroke="#231F20" stroke-width="0.666667" stroke-miterlimit="10"/>
<path d="M240.66 33.5902L257.107 44.4287L250.424 29.8224L245.239 24.2811L240.66 33.5902Z" fill="#373031"/>
<path d="M254.569 89.5586C254.569 89.5586 267.808 76.9271 263.939 62.1701C263.939 62.1701 276.98 74.5316 261.558 96.8345L254.569 89.5586Z" fill="#373031"/>
<path d="M238.711 30.0467C238.711 30.0467 228.036 39.5856 227.836 39.7777C227.636 39.9738 221.92 45.1567 220.479 45.4774C219.039 45.8007 213.509 49.1647 212.921 49.0505C212.33 48.9388 211.21 49.0453 210.62 49.4127C210.032 49.7827 208.422 51.0421 208.422 51.0421L208.335 51.2745C208.618 51.5186 208.946 51.764 209.332 52.0081C209.745 52.6092 210.192 53.2571 210.665 53.9348C215.252 52.7715 230.324 47.338 245.203 24.0562L238.711 30.0467Z" fill="#D8768C"/>
<path d="M209.369 52.2363C209.369 52.2363 227.172 48.588 245.24 24.2818C245.24 24.2818 252.277 15.8166 260.998 18.7223C269.714 21.6254 274.581 16.3684 274.581 16.3684L271.113 13.6679L275.013 9.53268C275.013 9.53268 269.743 12.7513 264.026 11.0452C258.306 9.34572 252.394 9.97022 244.182 18.7937C244.182 18.7937 225.767 42.5001 206.678 48.2699C206.678 48.2699 206.361 50.3291 209.369 52.2363" fill="#F7941E"/>
<path d="M214.721 59.8424L224.225 79.5032L228.555 68.675" stroke="#231F20" stroke-width="1.33333" stroke-miterlimit="10"/>
<path d="M232.021 82.0969C232.021 82.0969 236.641 80.3572 234.909 71.1169" stroke="#231F20" stroke-width="1.33333" stroke-miterlimit="10"/>
<path d="M223.773 58.2413C224.116 58.5788 224.122 59.1319 223.782 59.4747C223.444 59.8187 222.891 59.8226 222.549 59.4838L221.989 58.9346C221.645 58.5957 221.641 58.0439 221.98 57.7012C222.317 57.3571 222.869 57.3519 223.213 57.6895L223.773 58.2413Z" stroke="#231F20" stroke-width="1.33333" stroke-miterlimit="10"/>
<path d="M215.705 56.3911C215.705 56.3911 214.752 53.2154 222.881 49.4606" stroke="#231F20" stroke-width="1.33333" stroke-miterlimit="10"/>
<path d="M381.018 257.313L387.176 267.324C387.176 267.324 360.612 280.416 344.826 295.044C344.826 295.044 354.067 350.099 407.967 376.278C407.967 376.278 435.302 364.345 449.548 352.41C449.548 352.41 473.801 370.12 495.362 377.82C495.362 377.82 538.481 336.626 551.571 303.9L500.753 265.783C500.753 265.783 502.677 221.894 466.487 209.19L381.018 257.313Z" fill="#373031"/>
<path d="M260.896 101.003C260.896 101.003 243.571 134.498 260.896 163.95C278.221 193.404 352.086 222.279 350.671 219.392C349.254 216.503 381.018 257.313 381.018 257.313L466.488 209.189L416.243 135.653C416.243 135.653 411.046 77.9039 369.467 64.0415C327.886 50.1817 273.024 69.2401 260.896 101.003Z" fill="white"/>
<path d="M263.055 167.217C263.055 167.217 249.058 109.377 292.947 85.6987C336.837 62.0222 375.53 86.5647 381.593 119.481C387.658 152.401 363.114 159.618 363.114 159.618C363.114 159.618 360.227 276.564 314.604 299.664C268.979 322.764 161.603 226.898 161.603 226.898C161.603 226.898 111.131 208.033 131.15 185.319C131.15 185.319 119.216 166.068 136.927 160.293C136.927 160.293 138.85 149.899 146.55 146.434C154.25 142.967 168.496 151.053 168.496 151.053C168.496 151.053 174.559 142.006 183.222 142.872C191.884 143.738 202.568 156.732 202.568 175.211C202.568 175.211 227.953 202.354 275.966 205.818C275.966 205.818 266.37 181.746 263.055 167.217Z" fill="#D8768C"/>
<path d="M168.496 151.053C168.496 151.053 179.034 156.588 185.098 166.693" stroke="#231F20" stroke-width="1.33333" stroke-miterlimit="10"/>
<path d="M136.926 160.293C136.926 160.293 142.364 168.714 151.026 172.902" stroke="#231F20" stroke-width="1.33333" stroke-miterlimit="10"/>
<path d="M131.15 185.32C131.15 185.32 137.743 190.373 147.561 193.404" stroke="#231F20" stroke-width="1.33333" stroke-miterlimit="10"/>
<path d="M471.876 144.317V123.333" stroke="white" stroke-width="1.33333" stroke-miterlimit="10"/>
<path d="M471.876 142.197L489.587 133.825" stroke="white" stroke-width="1.33333" stroke-miterlimit="10"/>
<path d="M275.966 205.819L281.686 228.823" stroke="white" stroke-width="1.33333" stroke-miterlimit="10"/>
<path d="M276.806 209.19L296.316 217.321" stroke="white" stroke-width="1.33333" stroke-miterlimit="10"/>
<path d="M363.115 153.556V159.619C363.115 159.619 387.657 152.4 381.593 119.482C375.531 86.5642 336.838 62.0217 292.947 85.6982C290.664 86.9317 288.546 88.2599 286.569 89.6634C286.715 89.5816 323.71 69.2782 353.297 88.6818C382.942 108.126 379.668 144.123 363.115 153.556Z" fill="#AF4561"/>
<path d="M648.617 417.997C683.995 412.761 721.418 406.233 721.418 406.233L714.26 366.744C714.26 366.744 680.434 358.554 645.704 354.975C648.969 373.462 651.004 395.658 648.617 417.997Z" fill="white"/>
<path d="M334.452 485.197C367.511 518.232 402.184 545.392 402.184 545.392L430.881 517.336C430.881 517.336 422.05 489.294 401.997 456.4C377.369 473.61 352.244 481.545 334.452 485.197Z" fill="white"/>
<path d="M413.354 454.716C413.354 454.716 380.61 487.156 334.453 493.108" stroke="#333131" stroke-width="4" stroke-miterlimit="10"/>
<path d="M416.77 462.501C416.77 462.501 384.025 494.943 337.869 500.894" stroke="#333131" stroke-width="4" stroke-miterlimit="10"/>
<path d="M649.076 344.063C649.076 344.063 665.63 387.082 652.543 431.742" stroke="#333131" stroke-width="4" stroke-miterlimit="10"/>
<path d="M657.579 344.063C657.579 344.063 674.135 387.082 661.046 431.742" stroke="#333131" stroke-width="4" stroke-miterlimit="10"/>
<path d="M347.522 392.063L322.689 384.556" stroke="white" stroke-width="1.33333" stroke-miterlimit="10"/>
<path d="M344.826 391.25L329.619 411.988" stroke="white" stroke-width="1.33333" stroke-miterlimit="10"/>
<path d="M584.682 357.8L573.468 373.583" stroke="white" stroke-width="1.33333" stroke-miterlimit="10"/>
<path d="M583.888 358.918C583.888 358.918 584.348 381.813 584.681 381.38" stroke="white" stroke-width="1.33333" stroke-miterlimit="10"/>
<g opacity="0.300003">
<g opacity="0.300003">
<path opacity="0.300003" d="M334.452 451.262C289.236 424.162 293.237 378.204 314.605 351.639C335.971 325.074 339.643 302.882 339.643 302.882C315.256 322.828 263.768 370.956 278.606 411.316C297.856 463.676 402.184 545.392 402.184 545.392L402.504 545.08C402.925 510.287 370.79 473.038 334.452 451.262Z" fill="#D8768C"/>
</g>
</g>
<path d="M232.637 197.496L231.799 194.682C229.609 193.681 227.547 192.655 225.598 191.623L221.048 193.404L215.483 198.596L187.131 230.487L185.098 236.747L190.532 250.44C192.736 252.116 195.03 253.834 197.401 255.582L232.637 197.496Z" fill="#AF4561"/>
<path d="M231.896 191.005C233.893 192.593 234.224 195.5 232.636 197.496L189.73 251.425C188.142 253.422 185.235 253.753 183.238 252.164L164.86 237.544C162.864 235.954 162.534 233.048 164.122 231.051L207.028 177.123C208.614 175.127 211.523 174.795 213.52 176.382L231.896 191.005Z" fill="#0080FF"/>
<path d="M136.289 276.898L134.482 275.46L220.338 167.659L222.144 169.099L136.289 276.898Z" fill="black"/>
<path d="M142.582 279.564L140.775 278.126L226.63 170.325L228.438 171.765L142.582 279.564Z" fill="black"/>
<path d="M148.876 282.229L147.068 280.79L232.924 172.989L234.731 174.429L148.876 282.229Z" fill="black"/>
<path d="M155.169 284.895L153.362 283.456L239.217 175.655L241.025 177.095L155.169 284.895Z" fill="black"/>
<path d="M275.013 189.361C275.013 189.361 258.315 135.653 275.966 108.316" stroke="white" stroke-width="1.33333" stroke-miterlimit="10"/>
<path d="M281.686 101.292C281.686 101.292 310.85 75.016 356.473 94.3612" stroke="white" stroke-width="1.33333" stroke-miterlimit="10"/>
<path d="M356.472 160.293C356.472 160.293 348.291 274.251 315.565 291.192" stroke="white" stroke-width="1.33333" stroke-miterlimit="10"/>
<path d="M309.021 293.504C309.021 293.504 260.511 298.893 213.925 257.313" stroke="white" stroke-width="1.33333" stroke-miterlimit="10"/>
<g opacity="0.300003">
<g opacity="0.300003">
<path opacity="0.300003" d="M584.682 357.8C584.682 357.8 570.836 335.82 551.848 319.594C551.845 319.609 546.717 379.77 579.078 381.297C611.438 382.824 614.628 359.384 655.191 367.928C695.753 376.473 714.26 366.745 714.26 366.745C714.26 366.745 620.103 343.94 584.682 357.8Z" fill="#D8768C"/>
</g>
</g>
<g opacity="0.300003">
<g opacity="0.300003">
<path opacity="0.300003" d="M381.593 119.482C377.757 98.6567 360.856 81.1889 337.846 77.1562C357.605 91.6496 362.892 117.442 347.522 144.317C325.405 182.984 341.747 208.418 339.238 241.913C336.727 275.409 288.935 292.735 256.661 263.087C224.388 233.44 202.835 221.337 163.118 214.275C123.406 207.213 128.287 189.368 128.29 189.361C117.01 210.228 161.604 226.897 161.604 226.897C161.604 226.897 268.981 322.763 314.604 299.663C360.227 276.563 363.115 159.619 363.115 159.619C363.115 159.619 387.658 152.4 381.593 119.482Z" fill="#D8768C"/>
</g>
</g>
<path d="M378.995 61.7315C378.995 61.7315 458.978 54.514 484.101 69.2397" stroke="white" stroke-width="1.33333" stroke-miterlimit="10"/>
<path d="M489.586 71.5499C489.586 71.5499 518.751 102.736 540.119 150.09" stroke="white" stroke-width="1.33333" stroke-miterlimit="10"/>
<path d="M334.452 310.827C334.452 310.827 273.986 370.748 286.305 401.62" stroke="white" stroke-width="1.33333" stroke-miterlimit="10"/>
<path d="M294.392 415.562C294.392 415.562 307.51 453.278 339.644 479.459" stroke="white" stroke-width="1.33333" stroke-miterlimit="10"/>
<path d="M514.612 373.583C514.612 373.583 565.047 414.106 591.613 419.447" stroke="white" stroke-width="1.33333" stroke-miterlimit="10"/>
<path d="M596.232 419.448C596.232 419.448 631.076 417.474 646.86 413.047" stroke="white" stroke-width="1.33333" stroke-miterlimit="10"/>
<path d="M500.753 265.783C500.753 265.783 507.107 315.065 449.549 352.41" stroke="white" stroke-width="1.33333" stroke-miterlimit="10"/>
<path d="M430.405 229.504C430.405 229.504 460.052 268.478 434.683 299.085C409.315 329.694 368.924 345.195 368.924 345.195" stroke="white" stroke-width="2.66667" stroke-miterlimit="10"/>
<path d="M397.138 539.469L430.367 516.965C430.367 516.965 455.885 518.275 466.085 534.367L389.388 620.798C389.388 620.798 374.686 613.969 379.901 601.932C385.113 589.9 402.649 556.67 397.138 539.469Z" fill="#C9474E"/>
<path d="M462.496 529.873L381.584 614.59C384.726 618.63 389.388 620.798 389.388 620.798L466.086 534.367C465.037 532.713 463.824 531.224 462.496 529.873Z" fill="#373031"/>
<path d="M397.833 552.525L409.703 556.372" stroke="#333131" stroke-width="1.33333" stroke-miterlimit="10"/>
<path d="M396.281 560.618L406.561 566.065" stroke="#333131" stroke-width="1.33333" stroke-miterlimit="10"/>
<path d="M398.193 546.753L411.65 545.583" stroke="#333131" stroke-width="1.33333" stroke-miterlimit="10"/>
<path d="M432.729 551.005L433.23 524.24" stroke="#333131" stroke-width="1.33333" stroke-miterlimit="10"/>
<path d="M439.904 541.488L438.792 519.695" stroke="#333131" stroke-width="1.33333" stroke-miterlimit="10"/>
<path d="M426.994 556.088L426.782 534.129" stroke="#333131" stroke-width="1.33333" stroke-miterlimit="10"/>
<path d="M399.814 549.709C399.814 549.709 379.567 565.418 374.014 557.742C368.462 550.065 397.707 548.255 397.707 548.255C397.707 548.255 381.904 547.24 379.955 540.845C378.007 534.447 398.424 539.211 399.996 549.152" stroke="#333131" stroke-width="1.33333" stroke-miterlimit="10"/>
<path d="M716.334 407.367L713.783 367.316C713.783 367.316 727.849 345.984 746.89 345.349L782.509 455.277C782.509 455.277 769.17 464.488 761.438 453.89C753.709 443.296 733.955 411.335 716.334 407.367Z" fill="#C9474E"/>
<path d="M741.195 346.164L773.202 458.857C778.277 458.196 782.508 455.277 782.508 455.277L746.891 345.35C744.933 345.415 743.036 345.704 741.195 346.164Z" fill="#373031"/>
<path d="M727.943 413.386L737.274 405.105" stroke="#333131" stroke-width="1.33333" stroke-miterlimit="10"/>
<path d="M734.13 418.827L744.038 412.728" stroke="#333131" stroke-width="1.33333" stroke-miterlimit="10"/>
<path d="M723.148 410.15L728.96 397.958" stroke="#333131" stroke-width="1.33333" stroke-miterlimit="10"/>
<path d="M744.319 382.535L721.502 368.535" stroke="#333131" stroke-width="1.33333" stroke-miterlimit="10"/>
<path d="M739.755 371.526L720.407 361.437" stroke="#333131" stroke-width="1.33333" stroke-miterlimit="10"/>
<path d="M745.795 390.055L726.759 379.107" stroke="#333131" stroke-width="1.33333" stroke-miterlimit="10"/>
<path d="M726.52 410.25C726.52 410.25 729.793 435.664 720.363 436.564C710.932 437.456 724.197 411.33 724.197 411.33C724.197 411.33 715.312 424.438 708.812 422.874C702.306 421.311 716.764 406.127 726.129 409.811" stroke="#333131" stroke-width="1.33333" stroke-miterlimit="10"/>
</svg>
