<svg width="672" height="630" viewBox="0 0 672 630" fill="none" xmlns="http://www.w3.org/2000/svg">
<path d="M439.413 557.811H601.948C603.031 557.811 603.031 556.135 601.948 556.135H439.413C438.331 556.135 438.331 557.811 439.413 557.811Z" fill="black"/>
<path d="M618.965 557.811H670.876C671.955 557.811 671.955 556.135 670.876 556.135H618.965C617.885 556.135 617.885 557.811 618.965 557.811Z" fill="black"/>
<path d="M1.62987 521.222H159.908C160.988 521.222 160.988 519.544 159.908 519.544H1.62987C0.549648 519.544 0.549648 521.222 1.62987 521.222Z" fill="black"/>
<path d="M421.544 457.399H635.136C636.215 457.399 636.215 455.721 635.136 455.721H421.544C420.461 455.721 420.461 457.399 421.544 457.399Z" fill="black"/>
<path d="M483.663 468.46H514.298C515.379 468.46 515.379 466.783 514.298 466.783H483.663C482.58 466.783 482.58 468.46 483.663 468.46Z" fill="black"/>
<path d="M211.416 401.929C208.226 398.739 205.035 395.546 201.844 392.356C201.079 391.59 199.893 392.777 200.658 393.542C203.851 396.733 207.04 399.923 210.231 403.114C210.997 403.88 212.182 402.694 211.416 401.929Z" fill="black"/>
<path d="M209.549 403.279H190.402C189.319 403.279 189.319 404.957 190.402 404.957H209.549C210.629 404.957 210.629 403.279 209.549 403.279Z" fill="black"/>
<path d="M210.444 405.865C207.039 409.267 203.636 412.672 200.232 416.076C199.467 416.841 200.653 418.027 201.419 417.263C204.822 413.858 208.226 410.454 211.63 407.051C212.395 406.285 211.208 405.1 210.444 405.865Z" fill="black"/>
<path d="M555.771 606.013C555.771 618.807 452.134 629.178 324.289 629.178C196.446 629.178 92.8084 618.807 92.8084 606.013C92.8084 593.219 196.446 582.848 324.289 582.848C452.134 582.848 555.771 593.219 555.771 606.013Z" fill="#528FCC"/>
<path d="M237.772 59.8423C237.772 59.8423 352.021 46.7187 378.011 64.6202C403.997 82.523 446.155 170.304 446.155 170.304C446.155 170.304 455.108 174.924 463.481 170.304C471.854 165.684 479.071 158.464 485.715 160.487C492.354 162.506 490.814 168.38 490.814 168.38C490.814 168.38 498.032 165.972 501.306 170.593C504.579 175.213 502.823 182.503 502.823 182.503C502.823 182.503 510.762 182.359 511.268 189.071C511.774 195.786 481.381 227.479 456.164 224.782C430.948 222.087 376.083 170.113 360.875 144.316C360.875 144.316 323.521 154.709 289.24 144.893C261.182 136.857 285.032 116.981 285.032 116.403C285.032 115.827 275.985 89.2614 275.406 88.8758C274.828 88.4902 237.772 59.8423 237.772 59.8423Z" fill="#D8768C"/>
<path d="M438.07 179.254C438.07 179.254 453.374 175.499 457.127 191.96C457.127 191.96 468.291 193.019 474.452 189.746C480.613 186.474 488.12 198.215 477.149 205.338C466.175 212.46 446.733 218.043 426.52 198.601" stroke="black" stroke-width="1.33333" stroke-miterlimit="10"/>
<path d="M490.815 168.379C490.815 168.379 478.5 179.436 466.076 181.853" stroke="black" stroke-width="1.33333" stroke-miterlimit="10"/>
<path d="M502.822 182.502C502.822 182.502 499.574 186.761 486.001 191.382" stroke="black" stroke-width="1.33333" stroke-miterlimit="10"/>
<path d="M442.96 163.815C442.96 163.815 425.653 171.819 422.188 186.942" stroke="black" stroke-width="1.33333" stroke-miterlimit="10"/>
<path d="M446.155 170.304C446.155 170.304 436.337 172.109 429.119 186.942" stroke="black" stroke-width="1.33333" stroke-miterlimit="10"/>
<g opacity="0.300003">
<g opacity="0.300003">
<path opacity="0.300003" d="M409.386 170.304C392.101 129.984 383.592 128.34 337.198 126.798C290.806 125.259 281.566 94.2719 281.566 94.2719L278.897 98.1487C281.657 106.005 285.032 116.05 285.032 116.403C285.032 116.981 261.183 136.857 289.239 144.893C323.52 154.71 360.876 144.316 360.876 144.316C376.084 170.113 430.948 222.087 456.164 224.782C466.442 225.881 477.575 221.268 487.129 214.963C450.302 229.529 423.189 202.499 409.386 170.304Z" fill="#D8768C"/>
</g>
</g>
<path d="M372.041 361.265C372.041 361.265 455.204 425.177 482.922 424.407C510.643 423.634 610.419 406.234 610.419 406.234L603.26 366.745C603.26 366.745 509.103 343.94 473.682 357.799C473.682 357.799 442.882 308.905 410.156 303.13C377.432 297.354 383.977 332.39 383.977 332.39L372.041 361.265Z" fill="#D8768C"/>
<path d="M372.041 361.265C372.041 361.265 455.204 425.177 482.922 424.407C510.643 423.634 610.419 406.234 610.419 406.234L603.26 366.745C603.26 366.745 509.103 343.94 473.682 357.799C473.682 357.799 442.882 308.905 410.156 303.13C377.432 297.354 383.977 332.39 383.977 332.39L372.041 361.265Z" fill="#D8768C"/>
<path d="M409.236 387.904C432.614 366.112 439.29 338.489 440.848 319.594C431.515 311.619 420.941 305.032 410.157 303.13C377.432 297.355 383.977 332.389 383.977 332.389L372.042 361.265C372.042 361.265 388.514 373.922 409.236 387.904" fill="#AF4561"/>
<path d="M240.757 293.504C240.757 293.504 148.355 358.956 167.606 411.317C186.855 463.675 291.184 545.392 291.184 545.392L319.881 517.335C319.881 517.335 295.719 440.577 236.522 392.064C236.522 392.064 269.246 386.675 302.356 355.874C335.467 325.073 289.652 299.663 289.652 299.663L240.757 293.504Z" fill="#D8768C"/>
<path d="M240.757 293.504C240.757 293.504 235.896 296.95 228.643 302.882C229.165 321.075 234.765 360.886 272.201 378.035C281.543 372.75 291.93 365.575 302.357 355.873C335.467 325.073 289.652 299.663 289.652 299.663L240.757 293.504Z" fill="#AF4561"/>
<path d="M161.746 104.853C163.706 103.254 154.504 93.6876 156.515 92.1542C165.247 85.4951 174.745 79.0202 182.552 71.0887L181.86 71.4302L150.918 41.9475L140.94 86.822L159.763 106.69L161.746 104.853Z" fill="#D8768C"/>
<path d="M154.907 22.23C150.079 18.7219 142.666 17.0289 133.618 22.935C133.618 22.935 133.222 23.1882 132.492 23.6335C132.883 25.1474 133.073 26.7288 133.049 28.3179C134.554 27.4987 142.917 23.3466 149.496 28.4582C156.752 34.0994 163.09 30.7562 163.09 30.7562L160.718 27.0611L165.772 24.458C165.772 24.458 159.733 25.7368 154.907 22.23Z" fill="#F7941E"/>
<path d="M94.88 47.0695C94.88 47.0695 118.695 83.3996 135.682 96.8335C135.682 96.8335 167.669 73.3738 149.27 49.3533C149.27 49.3533 155.941 36.2478 151.506 27.3802C147.073 18.5151 141.081 24.4213 139.774 30.1963L134.239 24.2811C134.239 24.2811 98.244 27.6489 94.88 47.0695Z" fill="#D8768C"/>
<path d="M95.6776 48.27C95.6776 48.27 81.7789 66.0702 69.6304 59.9486C57.4779 53.8269 60.3031 39.1583 70.9352 31.859C70.9352 31.859 69.4681 19.8546 84.5963 14.8041C99.7194 9.75222 107.259 19.5728 107.259 19.5728C107.259 19.5728 101.219 5.5443 106.325 3.11641C111.432 0.691113 114.435 17.785 114.435 17.785C114.435 17.785 114.154 2.15823 120.503 4.51731C126.853 6.8764 120.729 15.5298 120.729 15.5298C120.729 15.5298 132.657 6.69593 134.24 24.2806C135.82 41.8679 124.523 40.7591 119.835 41.1798C115.148 41.5992 109.817 44.0985 109.128 44.8982C108.446 45.7058 95.6776 48.27 95.6776 48.27Z" fill="#373031"/>
<path d="M143.154 30.3749C143.154 30.3749 144.457 26.132 146.79 26.8837C149.123 27.6302 148.37 38.0806 148.37 38.0806" stroke="#231F20" stroke-width="0.666667" stroke-miterlimit="10"/>
<path d="M148.458 32.8601C148.458 32.8601 147.449 30.3296 145.298 30.9386" stroke="#231F20" stroke-width="0.666667" stroke-miterlimit="10"/>
<path d="M129.66 33.5902L146.107 44.4287L139.424 29.8224L134.239 24.2811L129.66 33.5902Z" fill="#373031"/>
<path d="M143.569 89.5586C143.569 89.5586 156.808 76.9271 152.939 62.1701C152.939 62.1701 165.98 74.5316 150.558 96.8345L143.569 89.5586Z" fill="#373031"/>
<path d="M127.711 30.0467C127.711 30.0467 117.036 39.5856 116.836 39.7777C116.636 39.9738 110.92 45.1567 109.479 45.4774C108.039 45.8007 102.509 49.1647 101.921 49.0505C101.33 48.9388 100.21 49.0453 99.6204 49.4127C99.0323 49.7827 97.4223 51.0421 97.4223 51.0421L97.3354 51.2745C97.6184 51.5186 97.9456 51.764 98.3325 52.0081C98.7454 52.6092 99.192 53.2571 99.6646 53.9348C104.252 52.7715 119.324 47.338 134.203 24.0562L127.711 30.0467Z" fill="#D8768C"/>
<path d="M98.3693 52.2363C98.3693 52.2363 116.172 48.588 134.24 24.2818C134.24 24.2818 141.277 15.8166 149.998 18.7223C158.714 21.6254 163.581 16.3684 163.581 16.3684L160.113 13.6679L164.013 9.53268C164.013 9.53268 158.743 12.7513 153.025 11.0452C147.306 9.34572 141.394 9.97022 133.182 18.7937C133.182 18.7937 114.767 42.5001 95.6779 48.2699C95.6779 48.2699 95.3611 50.3291 98.3693 52.2363" fill="#F7941E"/>
<path d="M103.721 59.8424L113.225 79.5032L117.555 68.675" stroke="#231F20" stroke-width="1.33333" stroke-miterlimit="10"/>
<path d="M121.021 82.0969C121.021 82.0969 125.641 80.3572 123.909 71.1169" stroke="#231F20" stroke-width="1.33333" stroke-miterlimit="10"/>
<path d="M112.773 58.2413C113.116 58.5788 113.122 59.1319 112.782 59.4747C112.444 59.8187 111.891 59.8226 111.549 59.4838L110.989 58.9346C110.645 58.5957 110.641 58.0439 110.98 57.7012C111.317 57.3571 111.869 57.3519 112.213 57.6895L112.773 58.2413Z" stroke="#231F20" stroke-width="1.33333" stroke-miterlimit="10"/>
<path d="M104.705 56.3911C104.705 56.3911 103.752 53.2154 111.881 49.4606" stroke="#231F20" stroke-width="1.33333" stroke-miterlimit="10"/>
<path d="M270.018 257.313L276.176 267.324C276.176 267.324 249.612 280.416 233.826 295.044C233.826 295.044 243.067 350.099 296.967 376.278C296.967 376.278 324.302 364.345 338.548 352.41C338.548 352.41 362.801 370.12 384.362 377.82C384.362 377.82 427.481 336.626 440.571 303.9L389.753 265.783C389.753 265.783 391.677 221.894 355.487 209.19L270.018 257.313Z" fill="#373031"/>
<path d="M149.896 101.003C149.896 101.003 132.571 134.498 149.896 163.95C167.221 193.404 241.086 222.279 239.671 219.392C238.254 216.503 270.018 257.313 270.018 257.313L355.488 209.189L305.243 135.653C305.243 135.653 300.046 77.9039 258.467 64.0415C216.886 50.1817 162.024 69.2401 149.896 101.003Z" fill="white"/>
<path d="M152.055 167.217C152.055 167.217 138.058 109.377 181.947 85.6987C225.837 62.0222 264.53 86.5647 270.593 119.481C276.658 152.401 252.114 159.618 252.114 159.618C252.114 159.618 249.227 276.564 203.604 299.664C157.979 322.764 50.6029 226.898 50.6029 226.898C50.6029 226.898 0.131325 208.033 20.1504 185.319C20.1504 185.319 8.21607 166.068 25.9267 160.293C25.9267 160.293 27.8496 149.899 35.55 146.434C43.2504 142.967 57.4958 151.053 57.4958 151.053C57.4958 151.053 63.5591 142.006 72.2216 142.872C80.8841 143.738 91.5681 156.732 91.5681 175.211C91.5681 175.211 116.953 202.354 164.966 205.818C164.966 205.818 155.37 181.746 152.055 167.217Z" fill="#D8768C"/>
<path d="M57.4958 151.053C57.4958 151.053 68.0344 156.588 74.0977 166.693" stroke="#231F20" stroke-width="1.33333" stroke-miterlimit="10"/>
<path d="M25.9262 160.293C25.9262 160.293 31.3637 168.714 40.0262 172.902" stroke="#231F20" stroke-width="1.33333" stroke-miterlimit="10"/>
<path d="M20.1502 185.32C20.1502 185.32 26.7431 190.373 36.5612 193.404" stroke="#231F20" stroke-width="1.33333" stroke-miterlimit="10"/>
<path d="M360.876 144.317V123.333" stroke="white" stroke-width="1.33333" stroke-miterlimit="10"/>
<path d="M360.876 142.197L378.587 133.825" stroke="white" stroke-width="1.33333" stroke-miterlimit="10"/>
<path d="M164.966 205.819L170.686 228.823" stroke="white" stroke-width="1.33333" stroke-miterlimit="10"/>
<path d="M165.806 209.19L185.316 217.321" stroke="white" stroke-width="1.33333" stroke-miterlimit="10"/>
<path d="M252.115 153.556V159.619C252.115 159.619 276.657 152.4 270.593 119.482C264.531 86.5642 225.838 62.0217 181.947 85.6982C179.663 86.9317 177.546 88.2599 175.569 89.6634C175.715 89.5816 212.71 69.2782 242.297 88.6818C271.942 108.126 268.668 144.123 252.115 153.556Z" fill="#AF4561"/>
<path d="M537.617 417.997C572.995 412.761 610.418 406.233 610.418 406.233L603.26 366.744C603.26 366.744 569.434 358.554 534.704 354.975C537.969 373.462 540.004 395.658 537.617 417.997Z" fill="white"/>
<path d="M223.452 485.197C256.511 518.232 291.184 545.392 291.184 545.392L319.881 517.336C319.881 517.336 311.05 489.294 290.997 456.4C266.369 473.61 241.244 481.545 223.452 485.197Z" fill="white"/>
<path d="M302.354 454.716C302.354 454.716 269.61 487.156 223.453 493.108" stroke="#333131" stroke-width="4" stroke-miterlimit="10"/>
<path d="M305.77 462.501C305.77 462.501 273.025 494.943 226.869 500.894" stroke="#333131" stroke-width="4" stroke-miterlimit="10"/>
<path d="M538.076 344.063C538.076 344.063 554.63 387.082 541.543 431.742" stroke="#333131" stroke-width="4" stroke-miterlimit="10"/>
<path d="M546.579 344.063C546.579 344.063 563.135 387.082 550.046 431.742" stroke="#333131" stroke-width="4" stroke-miterlimit="10"/>
<path d="M236.522 392.063L211.689 384.556" stroke="white" stroke-width="1.33333" stroke-miterlimit="10"/>
<path d="M233.826 391.25L218.619 411.988" stroke="white" stroke-width="1.33333" stroke-miterlimit="10"/>
<path d="M473.682 357.8L462.468 373.583" stroke="white" stroke-width="1.33333" stroke-miterlimit="10"/>
<path d="M472.888 358.918C472.888 358.918 473.348 381.813 473.681 381.38" stroke="white" stroke-width="1.33333" stroke-miterlimit="10"/>
<g opacity="0.300003">
<g opacity="0.300003">
<path opacity="0.300003" d="M223.452 451.262C178.236 424.162 182.237 378.204 203.605 351.639C224.971 325.074 228.643 302.882 228.643 302.882C204.256 322.828 152.768 370.956 167.606 411.316C186.856 463.676 291.184 545.392 291.184 545.392L291.503 545.08C291.925 510.287 259.79 473.038 223.452 451.262Z" fill="#D8768C"/>
</g>
</g>
<path d="M121.637 197.496L120.799 194.682C118.609 193.681 116.547 192.655 114.598 191.623L110.048 193.404L104.483 198.596L76.1313 230.487L74.0981 236.747L79.5316 250.44C81.7362 252.116 84.0304 253.834 86.4011 255.582L121.637 197.496Z" fill="#AF4561"/>
<path d="M120.896 191.005C122.893 192.593 123.224 195.5 121.636 197.496L78.7301 251.425C77.1423 253.422 74.2353 253.753 72.2384 252.164L53.8605 237.544C51.8636 235.954 51.5338 233.048 53.1217 231.051L96.0279 177.123C97.6145 175.127 100.523 174.795 102.52 176.382L120.896 191.005Z" fill="#0080FF"/>
<path d="M25.289 276.898L23.4817 275.46L109.338 167.659L111.144 169.099L25.289 276.898Z" fill="black"/>
<path d="M31.5823 279.564L29.775 278.126L115.63 170.325L117.438 171.765L31.5823 279.564Z" fill="black"/>
<path d="M37.8756 282.229L36.0683 280.79L121.924 172.989L123.731 174.429L37.8756 282.229Z" fill="black"/>
<path d="M44.1688 284.895L42.3615 283.456L128.217 175.655L130.025 177.095L44.1688 284.895Z" fill="black"/>
<path d="M164.013 189.361C164.013 189.361 147.315 135.653 164.966 108.316" stroke="white" stroke-width="1.33333" stroke-miterlimit="10"/>
<path d="M170.686 101.292C170.686 101.292 199.85 75.016 245.473 94.3612" stroke="white" stroke-width="1.33333" stroke-miterlimit="10"/>
<path d="M245.472 160.293C245.472 160.293 237.291 274.251 204.565 291.192" stroke="white" stroke-width="1.33333" stroke-miterlimit="10"/>
<path d="M198.021 293.504C198.021 293.504 149.511 298.893 102.925 257.313" stroke="white" stroke-width="1.33333" stroke-miterlimit="10"/>
<g opacity="0.300003">
<g opacity="0.300003">
<path opacity="0.300003" d="M473.682 357.8C473.682 357.8 459.836 335.82 440.848 319.594C440.845 319.609 435.717 379.77 468.078 381.297C500.438 382.824 503.628 359.384 544.191 367.928C584.753 376.473 603.26 366.745 603.26 366.745C603.26 366.745 509.103 343.94 473.682 357.8Z" fill="#D8768C"/>
</g>
</g>
<g opacity="0.300003">
<g opacity="0.300003">
<path opacity="0.300003" d="M270.593 119.482C266.757 98.6567 249.856 81.1889 226.846 77.1562C246.605 91.6496 251.892 117.442 236.522 144.317C214.405 182.984 230.747 208.418 228.238 241.913C225.727 275.409 177.935 292.735 145.661 263.087C113.388 233.44 91.8355 221.337 52.118 214.275C12.4057 207.213 17.2875 189.368 17.2901 189.361C6.01009 210.228 50.6041 226.897 50.6041 226.897C50.6041 226.897 157.981 322.763 203.604 299.663C249.227 276.563 252.115 159.619 252.115 159.619C252.115 159.619 276.658 152.4 270.593 119.482Z" fill="#D8768C"/>
</g>
</g>
<path d="M267.995 61.7315C267.995 61.7315 347.978 54.514 373.101 69.2397" stroke="white" stroke-width="1.33333" stroke-miterlimit="10"/>
<path d="M378.586 71.5499C378.586 71.5499 407.751 102.736 429.119 150.09" stroke="white" stroke-width="1.33333" stroke-miterlimit="10"/>
<path d="M223.452 310.827C223.452 310.827 162.986 370.748 175.305 401.62" stroke="white" stroke-width="1.33333" stroke-miterlimit="10"/>
<path d="M183.392 415.562C183.392 415.562 196.51 453.278 228.644 479.459" stroke="white" stroke-width="1.33333" stroke-miterlimit="10"/>
<path d="M403.612 373.583C403.612 373.583 454.047 414.106 480.613 419.447" stroke="white" stroke-width="1.33333" stroke-miterlimit="10"/>
<path d="M485.232 419.448C485.232 419.448 520.076 417.474 535.86 413.047" stroke="white" stroke-width="1.33333" stroke-miterlimit="10"/>
<path d="M389.753 265.783C389.753 265.783 396.107 315.065 338.549 352.41" stroke="white" stroke-width="1.33333" stroke-miterlimit="10"/>
<path d="M319.405 229.504C319.405 229.504 349.051 268.478 323.683 299.085C298.315 329.694 257.924 345.195 257.924 345.195" stroke="white" stroke-width="2.66667" stroke-miterlimit="10"/>
<path d="M286.138 539.469L319.367 516.965C319.367 516.965 344.885 518.275 355.085 534.367L278.388 620.798C278.388 620.798 263.686 613.969 268.901 601.932C274.113 589.9 291.649 556.67 286.138 539.469Z" fill="#C9474E"/>
<path d="M351.496 529.873L270.584 614.59C273.726 618.63 278.388 620.798 278.388 620.798L355.086 534.367C354.037 532.713 352.824 531.224 351.496 529.873Z" fill="#373031"/>
<path d="M286.833 552.525L298.703 556.372" stroke="#333131" stroke-width="1.33333" stroke-miterlimit="10"/>
<path d="M285.281 560.618L295.561 566.065" stroke="#333131" stroke-width="1.33333" stroke-miterlimit="10"/>
<path d="M287.193 546.753L300.65 545.583" stroke="#333131" stroke-width="1.33333" stroke-miterlimit="10"/>
<path d="M321.729 551.005L322.23 524.24" stroke="#333131" stroke-width="1.33333" stroke-miterlimit="10"/>
<path d="M328.904 541.488L327.792 519.695" stroke="#333131" stroke-width="1.33333" stroke-miterlimit="10"/>
<path d="M315.994 556.088L315.782 534.129" stroke="#333131" stroke-width="1.33333" stroke-miterlimit="10"/>
<path d="M288.814 549.709C288.814 549.709 268.567 565.418 263.014 557.742C257.462 550.065 286.707 548.255 286.707 548.255C286.707 548.255 270.904 547.24 268.955 540.845C267.007 534.447 287.424 539.211 288.996 549.152" stroke="#333131" stroke-width="1.33333" stroke-miterlimit="10"/>
<path d="M605.334 407.367L602.783 367.316C602.783 367.316 616.849 345.984 635.89 345.349L671.509 455.277C671.509 455.277 658.17 464.488 650.438 453.89C642.709 443.296 622.955 411.335 605.334 407.367Z" fill="#C9474E"/>
<path d="M630.195 346.164L662.202 458.857C667.277 458.196 671.508 455.277 671.508 455.277L635.891 345.35C633.933 345.415 632.036 345.704 630.195 346.164Z" fill="#373031"/>
<path d="M616.943 413.386L626.274 405.105" stroke="#333131" stroke-width="1.33333" stroke-miterlimit="10"/>
<path d="M623.13 418.827L633.038 412.728" stroke="#333131" stroke-width="1.33333" stroke-miterlimit="10"/>
<path d="M612.148 410.15L617.96 397.958" stroke="#333131" stroke-width="1.33333" stroke-miterlimit="10"/>
<path d="M633.319 382.535L610.502 368.535" stroke="#333131" stroke-width="1.33333" stroke-miterlimit="10"/>
<path d="M628.755 371.526L609.407 361.437" stroke="#333131" stroke-width="1.33333" stroke-miterlimit="10"/>
<path d="M634.795 390.055L615.759 379.107" stroke="#333131" stroke-width="1.33333" stroke-miterlimit="10"/>
<path d="M615.52 410.25C615.52 410.25 618.793 435.664 609.363 436.564C599.932 437.456 613.197 411.33 613.197 411.33C613.197 411.33 604.312 424.438 597.812 422.874C591.306 421.311 605.764 406.127 615.129 409.811" stroke="#333131" stroke-width="1.33333" stroke-miterlimit="10"/>
</svg>
