<svg width="152" height="175" viewBox="0 0 152 175" fill="none" xmlns="http://www.w3.org/2000/svg">
<g filter="url(#filter0_d)">
<path d="M114.969 29.1735H135.328C145.477 29.1735 153.177 39.6731 151.399 51.1072L135.414 153.773C134.584 162.165 127.764 168.7 119.345 169.173H32.3105C23.8911 168.7 17.0712 162.165 16.2394 153.773L0.256394 51.1072C-1.52202 39.6731 6.17776 29.1735 16.3275 29.1735H114.969Z" fill="#2FA8CC"/>
<path d="M116.661 40.84C116.697 62.1275 100.4 79.8836 79.1874 81.67C57.976 83.4551 38.9395 68.6724 35.4174 47.6786C31.8953 26.6834 45.0652 6.49874 65.6985 1.26364C86.3318 -3.97146 107.531 7.49342 114.445 27.6274C115.925 31.8745 116.674 36.3419 116.661 40.84Z" fill="#B0D3F0"/>
<path d="M116.661 40.84C116.658 54.9778 109.342 68.109 97.3214 75.5511C85.2998 82.9932 70.2834 83.6874 57.6276 77.3856C56.1469 73.1385 55.3965 68.6711 55.4112 64.173C55.4139 50.0351 62.7291 36.904 74.7508 29.4619C86.7724 22.0198 101.787 21.3255 114.445 27.6274C115.925 31.8745 116.674 36.3419 116.661 40.84Z" fill="#90BAE1"/>
<path d="M75.8269 17.507C74.2167 17.507 72.9109 16.2012 72.9109 14.5897V11.6738C72.9109 10.0622 74.2167 8.75647 75.8269 8.75647C77.4384 8.75647 78.7442 10.0622 78.7442 11.6738V14.5897C78.7442 16.2012 77.4384 17.507 75.8269 17.507Z" fill="#2C3E50"/>
<path d="M62.7024 21.0238C61.6597 21.0251 60.6957 20.4697 60.1737 19.5658L58.7157 17.0397C57.9226 15.6458 58.4046 13.8741 59.7932 13.073C61.1804 12.2706 62.9561 12.7405 63.7666 14.1237L65.2259 16.6485C66.0296 18.0424 65.553 19.8235 64.1604 20.6299C63.7185 20.8889 63.2151 21.0251 62.7024 21.0238Z" fill="#2C3E50"/>
<path d="M53.0921 30.6315C52.5794 30.6328 52.076 30.498 51.6341 30.2403L49.108 28.7823C47.7248 27.9719 47.2548 26.1961 48.0572 24.8076C48.8583 23.419 50.6314 22.9384 52.0239 23.7314L54.55 25.1894C55.6929 25.849 56.251 27.1948 55.9092 28.4699C55.5674 29.7449 54.4125 30.6315 53.0921 30.6315Z" fill="#2C3E50"/>
<path d="M101.082 58.3397C100.571 58.341 100.068 58.2062 99.6245 57.9485L97.0984 56.4905C95.7152 55.6801 95.2466 53.9044 96.0477 52.5158C96.8501 51.1273 98.6218 50.6466 100.016 51.4397L102.542 52.8977C103.685 53.5572 104.241 54.903 103.9 56.1781C103.558 57.4532 102.403 58.3397 101.082 58.3397Z" fill="#2C3E50"/>
<path d="M49.578 43.7573H46.6607C45.0505 43.7573 43.7447 42.4502 43.7447 40.84C43.7447 39.2298 45.0505 37.9227 46.6607 37.9227H49.578C51.1882 37.9227 52.4939 39.2298 52.4939 40.84C52.4939 42.4502 51.1882 43.7573 49.578 43.7573Z" fill="#2C3E50"/>
<path d="M104.994 43.7573H102.077C100.467 43.7573 99.1612 42.4502 99.1612 40.84C99.1612 39.2298 100.467 37.9227 102.077 37.9227H104.994C106.605 37.9227 107.91 39.2298 107.91 40.84C107.91 42.4502 106.605 43.7573 104.994 43.7573Z" fill="#2C3E50"/>
<path d="M50.5727 58.3397C49.2522 58.3397 48.096 57.4532 47.7555 56.1781C47.4137 54.903 47.9705 53.5572 49.1133 52.8977L51.6394 51.4397C53.0333 50.6466 54.8051 51.1273 55.6075 52.5158C56.4086 53.9044 55.9399 55.6801 54.5567 56.4905L52.0306 57.9485C51.5874 58.2048 51.084 58.3397 50.5727 58.3397Z" fill="#2C3E50"/>
<path d="M98.5778 30.6315C97.2573 30.6315 96.1024 29.7449 95.7606 28.4699C95.4188 27.1948 95.9756 25.849 97.1198 25.1894L99.6446 23.7314C100.548 23.2014 101.665 23.196 102.573 23.7181C103.48 24.2388 104.039 25.2068 104.037 26.2535C104.035 27.3003 103.471 28.2656 102.562 28.7823L100.036 30.2403C99.5925 30.498 99.0891 30.6328 98.5778 30.6315Z" fill="#2C3E50"/>
<path d="M88.9527 21.0238C88.44 21.0251 87.9367 20.8903 87.4947 20.6299C86.1008 19.8248 85.6229 18.0437 86.4266 16.6485L87.8846 14.1238C88.4026 13.2132 89.368 12.6511 90.4147 12.6484C91.4601 12.6457 92.4281 13.2052 92.9501 14.1117C93.4709 15.0196 93.4655 16.1371 92.9368 17.0397L91.4788 19.5658C90.9568 20.4684 89.9941 21.0238 88.9527 21.0238Z" fill="#2C3E50"/>
<path d="M75.8269 67.0902C74.2167 67.0902 72.9109 65.7845 72.9109 64.173V26.2562C72.9109 24.646 74.2167 23.3402 75.8269 23.3402C77.4384 23.3402 78.7442 24.646 78.7442 26.2562V64.173C78.7442 65.7845 77.4384 67.0902 75.8269 67.0902Z" fill="#E64C3C"/>
<path d="M84.5774 67.0902H67.0777C65.4662 67.0902 64.1604 65.7845 64.1604 64.173C64.1604 62.5628 65.4662 61.257 67.0777 61.257H84.5774C86.1889 61.257 87.4947 62.5628 87.4947 64.173C87.4947 65.7845 86.1889 67.0902 84.5774 67.0902Z" fill="#2C3E50"/>
<path d="M38.033 58.3397C38.033 58.3397 14.7 70.0062 23.4505 87.5073C32.1997 105.007 43.8662 116.674 40.9503 134.173C38.033 151.673 38.033 157.506 49.6995 157.506C61.3673 157.506 75.9497 157.506 67.2005 131.257C62.1083 114.625 61.0295 97.0242 64.0496 79.8943" fill="#2980BA"/>
<path d="M87.6056 79.8943C90.6256 97.0242 89.5455 114.625 84.4546 131.257C75.7054 157.506 90.2879 157.506 101.954 157.506C113.622 157.506 113.622 151.673 110.705 134.173C107.789 116.674 119.455 105.007 128.205 87.5073C136.955 70.0062 113.622 58.3397 113.622 58.3397" fill="#2980BA"/>
</g>
<defs>
<filter id="filter0_d" x="0" y="0" width="151.655" height="174.173" filterUnits="userSpaceOnUse" color-interpolation-filters="sRGB">
<feFlood flood-opacity="0" result="BackgroundImageFix"/>
<feColorMatrix in="SourceAlpha" type="matrix" values="0 0 0 0 0 0 0 0 0 0 0 0 0 0 0 0 0 0 127 0"/>
<feOffset dy="5"/>
<feColorMatrix type="matrix" values="0 0 0 0 0.268681 0 0 0 0 0.355174 0 0 0 0 0.441667 0 0 0 1 0"/>
<feBlend mode="normal" in2="BackgroundImageFix" result="effect1_dropShadow"/>
<feBlend mode="normal" in="SourceGraphic" in2="effect1_dropShadow" result="shape"/>
</filter>
</defs>
</svg>
