<svg width="427" height="708" viewBox="0 0 427 708" fill="none" xmlns="http://www.w3.org/2000/svg">
<path d="M233.471 694.43C233.471 701.696 276.384 707.585 329.32 707.585C382.257 707.585 425.171 701.696 425.171 694.43C425.171 687.165 382.257 681.276 329.32 681.276C276.384 681.276 233.471 687.165 233.471 694.43Z" fill="#528FCC"/>
<path d="M349.449 515.865C349.449 517.23 350.554 518.336 351.919 518.336C353.283 518.336 354.388 517.23 354.388 515.865C354.388 514.502 353.283 513.396 351.919 513.396C350.554 513.396 349.449 514.502 349.449 515.865Z" fill="black"/>
<path d="M3.05176e-05 625.019C3.05176e-05 638.211 77.9232 648.907 174.049 648.907C270.172 648.907 348.097 638.211 348.097 625.019C348.097 611.828 270.172 601.132 174.049 601.132C77.9232 601.132 3.05176e-05 611.828 3.05176e-05 625.019Z" fill="#528FCC"/>
<path d="M95.0706 343.12L109.841 453.2L93.4698 600.322L133.049 602.947L169.796 459.845C169.796 459.845 183.376 397.793 170.689 337.567C158.003 277.341 121.445 308.22 121.445 308.22L95.0706 343.12Z" fill="#D8768C"/>
<path d="M121.445 308.22C121.445 308.22 124.14 305.946 128.319 303.835C141.576 308.185 155.36 312.84 163.239 315.572C166.151 320.996 168.711 328.173 170.688 337.567C172.869 347.911 174.272 358.308 175.103 368.437C174.168 368.46 173.204 368.472 172.207 368.472C128.384 368.472 106.206 359.603 96.525 353.959L95.0704 343.119L121.445 308.22Z" fill="#913652"/>
<path d="M220.31 631.957H83.2467C83.2467 631.957 82.0756 625.263 86.593 618.066C91.1129 610.87 91.2788 601.665 91.2788 601.665C91.2788 601.665 96.4673 596.98 106.676 603.507C116.884 610.033 125.42 607.356 128.768 598.485C132.114 589.616 138.808 565.685 159.058 581.248C159.058 581.248 159.225 600.376 174.288 604.032C189.349 607.69 215.289 603.34 220.31 631.957Z" fill="#BC4B69"/>
<path d="M151.71 530.276L133.049 602.946L93.4699 600.322L106.984 478.872L142.659 491.977L151.71 530.276Z" fill="#161C3E"/>
<path d="M221.589 293.31C221.589 293.31 279.045 378.044 261.054 418.67C243.065 459.292 136.277 613.089 136.277 613.089H95.0711C95.0711 613.089 134.888 436.056 195.823 394.269C195.823 394.269 185.608 382.103 159.491 360.921L169.938 313.335L196.635 298.825L221.589 293.31Z" fill="#D8768C"/>
<path d="M221.589 293.31C221.589 293.31 279.045 378.044 261.054 418.67C243.065 459.292 136.277 613.089 136.277 613.089H95.0711C95.0711 613.089 134.888 436.056 195.823 394.269C195.823 394.269 185.608 382.103 159.491 360.921L169.938 313.335L196.635 298.825L221.589 293.31Z" fill="#D8768C"/>
<path d="M136.276 613.09H95.0708C95.0708 613.09 110.547 544.292 136.962 482.35C166.781 494.002 191.183 500.181 210.239 503.305C175.372 556.781 136.276 613.09 136.276 613.09Z" fill="#212E58"/>
<path d="M174.608 373.672C170.311 369.889 165.297 365.629 159.491 360.921L169.939 313.335L196.635 298.825L221.589 293.31C221.589 293.31 225.215 298.657 230.358 307.306C225.884 323.084 210.91 361.05 174.608 373.672Z" fill="#B54D68"/>
<path d="M312.05 142.501V166.768C312.05 166.768 303.181 193.21 273.558 191.034C243.937 188.858 238.581 167.604 238.581 167.604L237.744 142.501L267.534 141.162H280.42L312.05 142.501Z" fill="#161C3E"/>
<path d="M237.745 142.501C237.745 158.769 254.379 171.956 274.898 171.956C295.417 171.956 312.051 158.769 312.051 142.501C312.051 126.234 295.417 113.047 274.898 113.047C254.379 113.047 237.745 126.234 237.745 142.501Z" fill="#212E58"/>
<path d="M95.0705 343.12C91.468 324.797 95.0705 261.443 95.0705 261.443L140.701 272.883L152.115 283.571L169.796 346.936C169.796 346.936 159.377 354.304 133.604 352.183C107.832 350.062 95.0705 343.12 95.0705 343.12Z" fill="#DD285C"/>
<path d="M179.775 133.174C179.775 133.174 188.037 141.677 205.286 150.91C222.533 160.141 217.674 180.064 206.501 189.781C195.325 199.5 172.731 173.019 172.487 172.29C172.243 171.561 168.841 161.357 170.057 156.498C171.273 151.639 179.775 133.174 179.775 133.174Z" fill="#24044C"/>
<path d="M160.863 106.287C160.863 106.287 139.25 85.2799 114.805 100.871C83.8439 120.62 116.543 209.302 116.543 209.302L175.306 207.126L179.223 160.116C179.223 160.116 164.424 126.166 163.988 123.99C163.554 121.812 160.863 106.287 160.863 106.287Z" fill="#D8768C"/>
<path d="M204.76 240.497L229.715 297.953C229.715 297.953 218.689 346.703 159.492 360.921C159.492 360.921 97.6848 306.077 92.7502 267.773C87.8155 229.469 116.543 209.302 116.543 209.302L157.955 197.845L177.482 201.612L194.604 221.055L204.76 240.497Z" fill="#FC3C6C"/>
<path d="M162.976 108.24V92.2133C162.976 92.2133 178.135 102.443 182.923 85.4662C187.711 68.492 179.223 41.287 179.223 41.287L145.272 42.8098L140.701 107.012L162.976 108.24Z" fill="#D8768C"/>
<path d="M183.915 64.595C183.915 64.595 184.372 52.4701 172.205 46.7456C172.205 46.7456 167.843 60.4675 155.471 60.6346C155.471 60.6346 154.157 52.0442 148.727 54.2949C143.757 56.3549 146.661 69.9988 155.25 70.7156C155.25 70.7156 158.331 81.3859 142.508 81.6571C142.508 81.6571 133.698 82.7737 132.123 74.7639C130.55 66.7541 131.55 63.1762 126.684 59.5972C121.817 56.0182 119.383 51.2952 120.958 44.8539C122.531 38.4126 123.821 35.8363 121.817 28.5346C119.813 21.2342 122.389 17.9423 127.4 14.9365C132.409 11.9294 134.126 9.92631 135.558 6.63448C136.99 3.3414 139.137 3.05543 147.154 3.48502C155.17 3.91336 156.601 3.48501 159.607 1.33708C162.613 -0.809601 171.057 -1.23918 175.783 6.77685C180.506 14.7929 184.514 17.6551 188.951 17.6551C193.389 17.6551 199.114 20.375 197.253 28.2487C195.392 36.1211 193.532 36.5705 196.538 40.8552C199.543 45.1399 203.982 50.8656 198.398 55.4462C192.816 60.0268 191.815 56.8773 190.239 62.0311C188.665 67.1836 183.915 64.595 183.915 64.595Z" fill="#373031"/>
<path d="M169.796 215.625C169.796 215.625 167.384 237.765 146.007 242.346" stroke="white" stroke-width="4" stroke-miterlimit="10"/>
<path d="M138.216 203.306C138.216 203.306 138.931 282.808 203.162 332.431" stroke="white" stroke-width="4" stroke-miterlimit="10"/>
<path d="M154.319 356.142C208.426 350.141 227.692 293.333 227.698 293.311L229.714 297.954C229.714 297.954 218.689 346.702 159.492 360.921C159.492 360.921 157.543 359.19 154.319 356.142Z" fill="white"/>
<path d="M101.886 145.726C107.41 156.168 125.473 165.744 125.473 165.744C125.473 165.744 117.426 172.11 117.091 172.221C116.794 172.32 110.661 171.889 109.088 171.794C104.987 167.647 102.373 153.974 101.886 145.726Z" fill="#B5546D"/>
<path d="M102.536 152.207C112.481 165.82 131.631 167.661 131.631 167.661L140.627 174.336C140.627 174.336 156.297 185.652 157.457 187.103C158.222 188.059 157.98 199.845 157.725 207.778L116.543 209.302C116.543 209.302 104.771 180.714 102.536 152.207Z" fill="#24044C"/>
<path d="M116.543 125.294C126.556 207.562 180.965 256.747 180.965 256.747C261.489 245.43 289.782 136.176 289.782 136.176L265.406 114.848C265.406 114.848 233.633 166.646 197.503 185.798C197.503 185.798 187.057 116.154 148.319 97.8728L116.543 125.294Z" fill="#D8768C"/>
<path d="M313.957 97.7409V122.008C313.957 122.008 305.086 148.449 275.465 146.274C245.843 144.098 240.488 122.844 240.488 122.844L239.651 97.7409L269.441 96.4014H282.326L313.957 97.7409Z" fill="#161C3E"/>
<path d="M239.651 97.741C239.651 114.008 256.285 127.195 276.804 127.195C297.323 127.195 313.957 114.008 313.957 97.741C313.957 81.4737 297.323 68.2866 276.804 68.2866C256.285 68.2866 239.651 81.4737 239.651 97.741Z" fill="#212E58"/>
<path d="M263.75 97.7409C263.75 103.457 269.595 108.089 276.804 108.089C284.014 108.089 289.858 103.457 289.858 97.7409C289.858 92.0251 284.014 87.3925 276.804 87.3925C269.595 87.3925 263.75 92.0251 263.75 97.7409Z" fill="white"/>
<path d="M140.701 95.4229C167.548 100.964 182.96 137.993 182.96 137.993C182.96 137.993 190.148 153.882 193.195 166.462" stroke="white" stroke-width="1.33333" stroke-miterlimit="10"/>
<path d="M118.483 137.992L117.24 161.402C117.24 161.402 120.51 163.645 123.766 165.018C123.766 165.018 125.877 171.193 128.791 175.277C128.791 175.277 120.421 150.691 118.483 137.992Z" fill="#0E0916"/>
<g opacity="0.300003">
<g opacity="0.300003">
<path opacity="0.300003" d="M169.797 207.33C186.464 219.566 187.938 236.932 187.938 236.932C195.303 229.568 216.054 220.531 239.652 210.823C252.38 205.588 265.954 188.088 275.767 173.072C260.169 205.907 230.423 249.796 180.965 256.747C180.965 256.747 132.138 212.595 118.485 137.997C136.721 173.943 153.129 195.093 169.797 207.33Z" fill="#D8768C"/>
</g>
</g>
<path d="M197.504 203.306V185.797" stroke="white" stroke-width="1.33333" stroke-miterlimit="10"/>
<path d="M182.025 199.109L197.504 186.613" stroke="white" stroke-width="1.33333" stroke-miterlimit="10"/>
<path d="M250.864 141.162C250.864 141.162 239.937 168.529 203.162 186.613" stroke="white" stroke-width="1.33333" stroke-miterlimit="10"/>
<path d="M231.027 317.875C237.584 328.468 242.95 339.906 247.591 351.447C255.341 370.716 261.59 393.164 256.295 413.862C256.049 414.828 254.556 414.417 254.804 413.451C260.053 392.93 253.635 370.985 246.099 351.858C241.598 340.434 236.162 329.113 229.69 318.656C229.163 317.804 230.502 317.028 231.027 317.875Z" fill="#FFFDFE"/>
<path d="M254.624 418.317C242.56 446.635 227.136 474.86 207.309 498.469C206.666 499.232 205.577 498.133 206.213 497.373C225.944 473.881 241.282 445.716 253.286 417.536C253.676 416.62 255.01 417.409 254.624 418.317Z" fill="#FFFDFE"/>
<path d="M195.822 394.269L214.938 386.211" stroke="white" stroke-width="1.33333" stroke-miterlimit="10"/>
<path d="M197.311 394.269L213.377 409.473" stroke="white" stroke-width="1.33333" stroke-miterlimit="10"/>
<path d="M176.105 413.042C176.105 413.042 149.112 447.797 131.708 494.321" stroke="white" stroke-width="1.33333" stroke-miterlimit="10"/>
<path d="M130.594 497.921C130.594 497.921 108.927 552.379 100.235 592.301" stroke="white" stroke-width="1.33333" stroke-miterlimit="10"/>
<g opacity="0.300003">
<g opacity="0.300003">
<path opacity="0.300003" d="M120.702 267.869C150.005 287.137 159.605 294.501 159.491 318.265C159.433 330.3 155.775 345.86 164.189 359.678C162.653 360.113 161.098 360.535 159.491 360.922C159.491 360.922 97.684 306.076 92.7506 267.774C87.8159 229.47 116.544 209.302 116.544 209.302C116.544 209.302 91.3999 248.601 120.702 267.869Z" fill="#D8768C"/>
</g>
</g>
<path d="M214.23 512.714L214.754 508.731C214.111 508.647 150.315 500.079 124.956 479.055L122.393 482.145C148.644 503.909 211.566 512.366 214.23 512.714Z" fill="white"/>
<path d="M209.978 521.424L210.502 517.441C209.859 517.358 146.063 508.786 120.704 487.763L118.141 490.854C144.392 512.62 207.314 521.075 209.978 521.424Z" fill="white"/>
<path d="M136.276 613.09H95.0709C95.0709 613.09 96.1293 608.383 98.1621 600.34C105.46 599.342 110.317 605.925 118.319 607.787C127.915 610.021 131.818 598.527 137.508 585.809C143.199 573.089 158.6 580.573 158.6 580.573C145.327 600.052 136.276 613.09 136.276 613.09Z" fill="#212E58"/>
<path d="M224.593 636.418H87.5278C87.5278 636.418 86.3579 629.723 90.8753 622.526C95.394 615.331 95.5611 606.125 95.5611 606.125C95.5611 606.125 100.75 601.44 110.958 607.968C121.167 614.494 129.703 611.817 133.049 602.946C136.396 594.077 143.09 570.146 163.34 585.708C163.34 585.708 163.507 604.837 178.569 608.495C193.632 612.151 219.571 607.8 224.593 636.418Z" fill="#D8768C"/>
<path d="M168.693 604.032L165.679 614.983" stroke="white" stroke-width="1.33333" stroke-miterlimit="10"/>
<path d="M167.186 601.93L155.992 611.134" stroke="white" stroke-width="1.33333" stroke-miterlimit="10"/>
<path d="M174.049 607.787V615.819" stroke="white" stroke-width="1.33333" stroke-miterlimit="10"/>
<path d="M223.412 631.429H87.6005" stroke="white" stroke-width="1.33333" stroke-miterlimit="10"/>
<g opacity="0.300003">
<g opacity="0.300003">
<path opacity="0.300003" d="M98.6129 598.564C109.613 555.413 145.519 428.763 195.822 394.268C195.822 394.268 190.053 387.399 176.105 374.997C176.107 374.998 205.988 381.496 210.239 396.743C214.492 411.99 154.236 445.495 153.906 495.317C153.655 532.985 133.694 578.5 98.6129 598.564Z" fill="#D8768C"/>
</g>
</g>
<path d="M112.07 453.2L130.594 444.675" stroke="white" stroke-width="1.33333" stroke-miterlimit="10"/>
<path d="M112.07 448.937L126.836 432.625" stroke="white" stroke-width="1.33333" stroke-miterlimit="10"/>
<g opacity="0.300003">
<g opacity="0.300003">
<path opacity="0.300003" d="M119.455 365.961C150.006 408.971 139.815 432.296 126.836 478.871C117.828 511.199 109.476 547.989 96.1135 576.568L109.84 453.199L95.0711 343.119C92.6384 330.75 93.4902 297.855 94.3011 277.787C94.8012 277.638 95.0711 277.556 95.0711 277.556C95.0711 277.556 88.9022 322.951 119.455 365.961Z" fill="#D8768C"/>
</g>
</g>
<path d="M145.894 347.926L150.262 352.246C150.262 352.246 123.927 355.701 95.0704 343.119C95.0704 343.119 94.2731 339.065 94.2459 336.949C94.2459 336.949 114.056 349.137 145.894 347.926Z" fill="white"/>
<path d="M178.232 65.3921L180.408 81.7101L174.049 78.1113" stroke="#333131" stroke-width="1.33333" stroke-miterlimit="10"/>
<path d="M177.897 85.8096C177.897 85.8096 172.71 87.0649 169.78 82.6304" stroke="#333131" stroke-width="1.33333" stroke-miterlimit="10"/>
<path d="M173.324 63.1055C173.324 63.1055 170.869 59.2009 165.931 61.2089" stroke="#333131" stroke-width="1.33333" stroke-miterlimit="10"/>
<path d="M180.408 63.9985C180.408 63.9985 182.192 61.6005 186.655 63.1059" stroke="#333131" stroke-width="1.33333" stroke-miterlimit="10"/>
<path d="M172.766 68.4614C172.766 69.047 172.892 69.5211 173.044 69.5211C173.199 69.5211 173.324 69.047 173.324 68.4614C173.324 67.8758 173.199 67.4017 173.044 67.4017C172.892 67.4017 172.766 67.8758 172.766 68.4614Z" stroke="#333131" stroke-width="1.33333" stroke-miterlimit="10"/>
<path d="M181.635 68.3495C181.635 68.7197 181.772 69.0193 181.942 69.0193C182.111 69.0193 182.249 68.7197 182.249 68.3495C182.249 67.9794 182.111 67.6798 181.942 67.6798C181.772 67.6798 181.635 67.9794 181.635 68.3495Z" stroke="#333131" stroke-width="1.33333" stroke-miterlimit="10"/>
<g opacity="0.300003">
<g opacity="0.300003">
<path opacity="0.300003" d="M161.528 73.5517C161.528 76.3075 163.762 78.5421 166.517 78.5421C169.273 78.5421 171.507 76.3075 171.507 73.5517C171.507 70.7959 169.273 68.5613 166.517 68.5613C163.762 68.5613 161.528 70.7959 161.528 73.5517Z" fill="#D8768C"/>
</g>
</g>
<g opacity="0.300003">
<g opacity="0.300003">
<path opacity="0.300003" d="M184.142 78.6488C182.996 77.7352 182.249 76.3437 182.249 74.764C182.249 73.0927 183.078 71.6219 184.339 70.7157C184.43 73.3997 184.386 76.075 184.142 78.6488Z" fill="#D8768C"/>
</g>
</g>
<path d="M162.976 92.2134C162.976 92.2134 156.309 86.9408 154.718 81.7103C154.718 81.7103 151.29 94.6795 162.976 103.159V92.2134Z" fill="#373031"/>
<path d="M152.179 59.2005C152.179 59.2005 151.174 57.3596 149.613 58.3079C148.052 59.2562 148.777 64.7232 153.407 67.401" stroke="#333131" stroke-width="1.33333" stroke-miterlimit="10"/>
<path d="M150.154 64.2814C150.154 64.2814 150.242 62.1706 152.041 61.4179" stroke="#333131" stroke-width="1.33333" stroke-miterlimit="10"/>
<path d="M209.168 248.12C209.168 248.12 196.081 255.587 180.966 256.747C180.966 256.747 157.765 232.482 147.968 214.681" stroke="#333131" stroke-width="1.33333" stroke-miterlimit="10"/>
<path d="M95.0708 277.556C95.0708 277.556 110.195 315.878 145.894 347.926" stroke="#333131" stroke-width="1.33333" stroke-miterlimit="10"/>
<path d="M171.454 606.532C171.454 606.532 187.521 601.595 185.344 594.147C183.169 586.7 171.956 598.499 170.701 605.611C170.701 605.611 175.639 590.968 169.195 588.876C162.752 586.784 164.797 604.691 171.454 606.532Z" stroke="black" stroke-width="1.33333" stroke-miterlimit="10"/>
<path d="M326.731 314.688H248.185C247.187 314.688 247.187 313.14 248.185 313.14H326.731C327.729 313.14 327.729 314.688 326.731 314.688Z" fill="black"/>
<path d="M279.426 252.209H236.137C235.14 252.209 235.14 250.661 236.137 250.661H279.426C280.424 250.661 280.424 252.209 279.426 252.209Z" fill="black"/>
<path d="M426.252 216.06H306.203C305.207 216.06 305.207 214.513 306.203 214.513H426.252C427.249 214.513 427.249 216.06 426.252 216.06Z" fill="black"/>
<path d="M378.5 246.407H307.542C306.544 246.407 306.544 244.859 307.542 244.859H378.5C379.498 244.859 379.498 246.407 378.5 246.407Z" fill="black"/>
<path d="M378.034 699.775H293.995C275.119 686.525 262.772 664.612 262.772 639.801C262.772 599.349 295.565 566.558 336.015 566.558C376.464 566.558 409.259 599.349 409.259 639.801C409.259 664.612 396.91 686.525 378.034 699.775Z" fill="#373031"/>
<path d="M318.903 579.464C333.694 591.721 354.402 576.504 354.402 576.504C354.402 576.504 373.418 547.346 367.503 534.669C361.586 521.989 310.027 520.722 299.462 534.669C288.897 548.614 304.112 567.21 318.903 579.464ZM281.904 524.084C298.118 502.681 377.252 504.624 386.331 524.084C395.413 543.543 366.225 588.299 366.225 588.299C366.225 588.299 334.442 611.649 311.741 592.837C289.04 574.028 265.689 545.49 281.904 524.084Z" fill="#373031"/>
<path d="M312.919 597.351C312.919 606.408 320.263 613.751 329.32 613.751C338.378 613.751 345.721 606.408 345.721 597.351C345.721 588.293 338.378 580.95 329.32 580.95C320.263 580.95 312.919 588.293 312.919 597.351Z" fill="white"/>
<path d="M292.502 608.396C292.502 611.354 294.9 613.751 297.858 613.751C300.815 613.751 303.213 611.354 303.213 608.396C303.213 605.439 300.815 603.041 297.858 603.041C294.9 603.041 292.502 605.439 292.502 608.396Z" fill="white"/>
</svg>
